<svg xmlns="http://www.w3.org/2000/svg" viewBox="0 0 65.54 90.8"><title>manwoman-icon</title><path d="M42.22,18.29a24.55,24.55,0,1,1-6.88-5l4.27-5.67-2.4-1.8L44,2.94,50.69,0l-.86,7.28L49,14.56l-2.6-1.94-4.2,5.67Zm-7,2.54A18,18,0,1,0,39,46,18,18,0,0,0,35.21,20.83Z" style="fill:#ccc;fill-rule:evenodd;opacity:0.5"/><path d="M42.53,30.76a23,23,0,0,1,2.11,45.95v4.15h5.65v4.29H44.64V90.8H40.36V85.15H34.71V80.86h5.65V76.71a23,23,0,0,1,2.17-45.95Zm0,6.13A16.88,16.88,0,1,0,59.41,53.76,16.87,16.87,0,0,0,42.53,36.89Z" style="fill:#c44f00;fill-rule:evenodd"/></svg>