<?xml version="1.0" encoding="utf-8"?>
<!-- Generator: Adobe Illustrator 23.0.3, SVG Export Plug-In . SVG Version: 6.00 Build 0)  -->
<svg version="1.1" id="Layer_1" xmlns="http://www.w3.org/2000/svg" xmlns:xlink="http://www.w3.org/1999/xlink" x="0px" y="0px"
	 viewBox="0 0 1199.8 753.4" style="enable-background:new 0 0 1199.8 753.4;" xml:space="preserve">
<style type="text/css">
	.st0{fill:url(#SVGID_1_);}
	.st1{opacity:0.7;fill:none;stroke:#FFFFFF;stroke-width:2;stroke-linecap:round;stroke-linejoin:round;enable-background:new    ;}
	.st2{clip-path:url(#SVGID_3_);}
	.st3{opacity:0.4;}
	.st4{fill:#1D1D1B;}
	.st5{fill:#706F6F;}
	.st6{fill:#DADADA;}
	.st7{fill:#878787;}
	.st8{fill:#C6C6C6;}
	.st9{fill:#3C3C3B;}
	.st10{fill:#F6F6F6;}
	.st11{fill:#B2B2B2;}
	.st12{fill:#EDEDED;}
	.st13{fill:#575756;}
</style>
<g>
	
		<linearGradient id="SVGID_1_" gradientUnits="userSpaceOnUse" x1="110.4548" y1="-1917.6139" x2="1087.1537" y2="-940.905" gradientTransform="matrix(1 0 0 -1 0 -1052.5544)">
		<stop  offset="0" style="stop-color:#007787"/>
		<stop  offset="0.66" style="stop-color:#006B88"/>
		<stop  offset="1" style="stop-color:#006289"/>
	</linearGradient>
	<rect x="-1.2" class="st0" width="1200" height="753.4"/>
	<path id="curve" class="st1" d="M-3.9,666.5c0,0,238.9-167,597.7-167c290.1,0,605.1,154.3,605.1,154.3"/>
	<g>
		<defs>
			<rect id="SVGID_2_" x="-1.2" width="1200" height="753.4"/>
		</defs>
		<clipPath id="SVGID_3_">
			<use xlink:href="#SVGID_2_"  style="overflow:visible;"/>
		</clipPath>
		<g class="st2">
			<g id="circles" class="st3">
				<path class="st4" d="M987.2,691.5c0-12,9.7-21.7,21.7-21.7c12,0,21.7,9.7,21.7,21.7c0,12-9.7,21.7-21.7,21.7
					C996.9,713.3,987.2,703.6,987.2,691.5C987.2,691.6,987.2,691.6,987.2,691.5z"/>
				<path class="st5" d="M584,630.2c0-12,9.7-21.7,21.7-21.7c12,0,21.7,9.7,21.7,21.7c0,12-9.7,21.7-21.6,21.7
					C593.8,651.9,584.1,642.2,584,630.2C584,630.2,584,630.2,584,630.2z"/>
				<circle class="st6" cx="114.1" cy="637.3" r="23"/>
				<path class="st7" d="M609.6,530.8c0-15.5,12.6-28,28-27.9c15.5,0,28,12.6,28,28c0,15.4-12.6,28-28,28
					C622.1,558.8,609.6,546.3,609.6,530.8z"/>
				<path class="st8" d="M679,670.9c0-13.8,11.2-25,25-25s25,11.2,25,25s-11.2,25-25,25S679,684.7,679,670.9L679,670.9z"/>
				<path class="st4" d="M614.3,680.8c0-12.6,10.2-22.9,22.8-22.9s22.9,10.2,22.9,22.8s-10.2,22.9-22.8,22.9h0
					C624.5,703.7,614.3,693.5,614.3,680.8z"/>
				<path class="st8" d="M180.1,625c0-14,11.3-25.4,25.3-25.4c14,0,25.4,11.3,25.4,25.3c0,14-11.3,25.4-25.3,25.4c0,0,0,0,0,0
					C191.5,650.3,180.1,639,180.1,625z"/>
				<path class="st6" d="M932.8,651.8c0-15.5,12.6-28.1,28.1-28.1s28.1,12.6,28.1,28.1c0,15.5-12.6,28.1-28.1,28.1c0,0,0,0-0.1,0
					C945.3,679.9,932.8,667.3,932.8,651.8z"/>
				<circle class="st8" cx="1068.3" cy="581.2" r="22.5"/>
				<path class="st4" d="M475.5,528c0-13.7,11.1-24.8,24.8-24.8c13.7,0,24.8,11.1,24.8,24.8c0,13.7-11.1,24.8-24.8,24.8
					S475.5,541.7,475.5,528L475.5,528z"/>
				<path class="st7" d="M907.2,744.6c0-12,9.7-21.8,21.8-21.8c12,0,21.8,9.7,21.8,21.8c0,12-9.7,21.8-21.8,21.8c0,0,0,0,0,0
					C917,766.4,907.2,756.7,907.2,744.6L907.2,744.6z"/>
				<path class="st9" d="M11.6,757.8c0-14.6,11.8-26.4,26.3-26.4c14.6,0,26.4,11.8,26.4,26.3c0,14.6-11.8,26.4-26.3,26.4
					c0,0,0,0,0,0C23.4,784.1,11.6,772.3,11.6,757.8z"/>
				<path class="st10" d="M850.2,655.4c0-11.6,9.4-21,21-21s21,9.4,21,21s-9.4,21-21,21S850.2,667,850.2,655.4L850.2,655.4z"/>
				<path class="st8" d="M84.1,753.7c0-11.9,9.6-21.5,21.5-21.5c11.9,0,21.5,9.6,21.5,21.5c0,11.9-9.6,21.5-21.5,21.5c0,0,0,0,0,0
					C93.8,775.2,84.1,765.6,84.1,753.7z"/>
				<path class="st9" d="M441.5,499.5c0-12.1,9.8-21.9,21.9-21.9c12.1,0,21.9,9.8,21.9,21.9c0,12.1-9.8,21.9-21.9,21.9
					C451.3,521.4,441.5,511.6,441.5,499.5C441.5,499.5,441.5,499.5,441.5,499.5z"/>
				<path class="st9" d="M578.2,719.2c0-13.3,10.7-24,24-24s24,10.7,24,24s-10.7,24-24,24S578.2,732.5,578.2,719.2z"/>
				<path class="st5" d="M139.9,587.6c0-14.9,12.1-27,27-27s27,12.1,27,27s-12.1,27-27,27l0,0C151.9,614.6,139.9,602.5,139.9,587.6z
					"/>
				<path class="st11" d="M759,624.1c0-12,9.7-21.7,21.7-21.7s21.7,9.7,21.7,21.7c0,12-9.7,21.7-21.7,21.7
					C768.8,645.8,759,636.1,759,624.1C759,624.1,759,624.1,759,624.1z"/>
				<circle class="st11" cx="409.6" cy="579.7" r="21.2"/>
				<path class="st8" d="M361.4,620.1c0-14,11.3-25.3,25.3-25.3c14,0,25.3,11.3,25.3,25.3c0,14-11.3,25.3-25.3,25.3
					C372.7,645.4,361.4,634.1,361.4,620.1C361.4,620.1,361.4,620.1,361.4,620.1z"/>
				<path class="st10" d="M837.1,539.2c0-13.4,10.8-24.2,24.2-24.2s24.2,10.8,24.2,24.2s-10.8,24.2-24.2,24.2
					C848,563.5,837.1,552.6,837.1,539.2C837.1,539.3,837.1,539.3,837.1,539.2z"/>
				<path class="st10" d="M678.8,493.2c0-13.1,10.6-23.7,23.7-23.7c13.1,0,23.7,10.6,23.7,23.7s-10.6,23.7-23.7,23.7
					C689.4,516.9,678.8,506.3,678.8,493.2z"/>
				<path class="st5" d="M56,661.1c0-11.6,9.4-21,21-21s21,9.4,21,21s-9.4,21-21,21l0,0C65.4,682.1,56,672.7,56,661.1z"/>
				<path class="st7" d="M961.5,743.6c0-11.7,9.5-21.2,21.2-21.2c11.7,0,21.2,9.5,21.2,21.2c0,11.7-9.5,21.2-21.2,21.2c0,0,0,0,0,0
					C971,764.8,961.5,755.3,961.5,743.6z"/>
				<circle class="st9" cx="636.7" cy="755.7" r="25.6"/>
				<path class="st11" d="M291.3,730.5c0-11.6,9.4-21.1,21.1-21.1s21.1,9.4,21.1,21.1c0,11.6-9.4,21.1-21.1,21.1
					S291.3,742.2,291.3,730.5L291.3,730.5z"/>
				<circle class="st11" cx="1179.4" cy="708.9" r="24.6"/>
				<path class="st9" d="M120.8,672.4c0-12.5,10.2-22.7,22.7-22.7c12.5,0,22.7,10.2,22.7,22.7S156,695,143.5,695c0,0,0,0,0,0
					C130.9,695,120.8,684.9,120.8,672.4z"/>
				<path class="st12" d="M759.8,501.2c0-12.7,10.3-23,23-23c12.7,0,23,10.3,23,23s-10.3,23-23,23l0,0
					C770.1,524.2,759.8,513.9,759.8,501.2z"/>
				
					<ellipse transform="matrix(0.9732 -0.2298 0.2298 0.9732 -109.1384 239.5619)" class="st4" cx="974.2" cy="588.5" rx="25.5" ry="25.5"/>
				<path class="st4" d="M789.4,718.4c0-11.8,9.6-21.4,21.4-21.4c11.8,0,21.4,9.6,21.4,21.4c0,11.8-9.6,21.4-21.4,21.4c0,0,0,0,0,0
					C799,739.8,789.4,730.2,789.4,718.4z"/>
				<circle class="st13" cx="544" cy="504.1" r="23.5"/>
				<path class="st5" d="M525.6,725.5c0-11.9,9.7-21.6,21.6-21.6s21.6,9.7,21.6,21.6c0,11.9-9.7,21.6-21.6,21.6h0
					C535.3,747.1,525.6,737.4,525.6,725.5z"/>
				<circle class="st5" cx="1145.5" cy="668.9" r="22.5"/>
				<circle class="st6" cx="189.4" cy="693.8" r="24"/>
				<circle class="st9" cx="312.5" cy="619.1" r="23.9"/>
				
					<ellipse transform="matrix(0.7071 -0.7071 0.7071 0.7071 -216.4348 943.4478)" class="st5" cx="1030.6" cy="733" rx="21.3" ry="21.3"/>
				<path class="st7" d="M867.2,575.6c0-11.6,9.4-21,21-21s21,9.4,21,21s-9.4,21-21,21S867.2,587.2,867.2,575.6L867.2,575.6z"/>
				<path class="st8" d="M340,668.7c0-12.9,10.5-23.4,23.4-23.4c12.9,0,23.4,10.5,23.4,23.4c0,12.9-10.5,23.4-23.4,23.4c0,0,0,0,0,0
					C350.5,692.1,340,681.6,340,668.7z"/>
				<path class="st13" d="M1069.6,677c0-14.6,11.8-26.4,26.4-26.4c14.6,0,26.4,11.8,26.4,26.4c0,14.6-11.8,26.4-26.4,26.4
					C1081.4,703.4,1069.6,691.6,1069.6,677C1069.6,677,1069.6,677,1069.6,677z"/>
				<path class="st7" d="M365.1,740.4c0-13.3,10.7-24,24-24c13.3,0,24,10.7,24,24c0,13.2-10.7,24-24,24
					C375.9,764.4,365.1,753.7,365.1,740.4C365.1,740.5,365.1,740.4,365.1,740.4z"/>
				<path class="st12" d="M431.1,727.7c0-13.9,11.3-25.2,25.3-25.2c13.9,0,25.2,11.3,25.2,25.3c0,13.9-11.3,25.2-25.3,25.2
					C442.4,753,431.1,741.7,431.1,727.7C431.1,727.7,431.1,727.7,431.1,727.7z"/>
				<path class="st7" d="M417,664.1c0-11.6,9.4-21,21-21s21,9.4,21,21s-9.4,21-21,21l0,0C426.4,685.1,417,675.7,417,664.1z"/>
				<path class="st13" d="M583.8,574.9c0-13.7,11.1-24.8,24.8-24.8c13.7,0,24.8,11.1,24.8,24.8c0,13.7-11.1,24.8-24.8,24.8
					c0,0,0,0,0,0C594.9,599.7,583.8,588.6,583.8,574.9C583.8,574.9,583.8,574.9,583.8,574.9z"/>
				<path class="st7" d="M715,541.6c0-11.7,9.5-21.1,21.2-21.1s21.1,9.5,21.1,21.2c0,11.7-9.5,21.1-21.1,21.1
					C724.5,562.8,715,553.3,715,541.6C715,541.6,715,541.6,715,541.6z"/>
				<path class="st7" d="M786.4,538c0-12,9.8-21.8,21.8-21.8S830,526,830,538c0,12-9.8,21.8-21.8,21.8c0,0,0,0,0,0
					C796.2,559.8,786.4,550,786.4,538C786.4,538,786.4,538,786.4,538z"/>
				<circle class="st8" cx="685.1" cy="571.3" r="28.9"/>
				<path class="st5" d="M234.8,632.1c0-12.6,10.2-22.9,22.9-22.9c12.6,0,22.9,10.2,22.9,22.9c0,12.6-10.2,22.9-22.8,22.9
					C245,655,234.8,644.8,234.8,632.1C234.8,632.2,234.8,632.2,234.8,632.1z"/>
				<path class="st4" d="M528.4,634.3c0-15.2,12.3-27.5,27.5-27.5s27.5,12.3,27.5,27.5s-12.3,27.5-27.5,27.5
					S528.4,649.5,528.4,634.3L528.4,634.3z"/>
				<path class="st11" d="M477.9,765.8c0-16.1,13.1-29.2,29.2-29.2s29.2,13.1,29.2,29.2c0,16.1-13.1,29.2-29.2,29.2
					C491,795,477.9,781.9,477.9,765.8C477.9,765.8,477.9,765.8,477.9,765.8z"/>
				<path class="st10" d="M223.1,734.2c0-12.4,10.1-22.5,22.5-22.5c12.4,0,22.5,10.1,22.5,22.5c0,12.4-10.1,22.5-22.5,22.5
					c0,0,0,0,0,0C233.2,756.8,223.1,746.7,223.1,734.2C223.1,734.2,223.1,734.2,223.1,734.2z"/>
				<circle class="st11" cx="372.8" cy="507.2" r="24"/>
				<path class="st4" d="M728.8,675.3c0-14,11.3-25.3,25.3-25.3s25.3,11.3,25.3,25.3S768,700.6,754,700.6c0,0,0,0,0,0
					C740.1,700.6,728.8,689.3,728.8,675.3C728.8,675.3,728.8,675.3,728.8,675.3z"/>
				<path class="st4" d="M727.9,595.5c0-11.6,9.4-21,21-21s21,9.4,21,21s-9.4,21-21,21S727.9,607.1,727.9,595.5L727.9,595.5z"/>
				
					<ellipse transform="matrix(0.7071 -0.7071 0.7071 0.7071 -324.6353 329.1285)" class="st9" cx="235" cy="556.4" rx="27.6" ry="27.6"/>
				<path class="st4" d="M994.8,625.7c0-12.9,10.5-23.4,23.4-23.4c12.9,0,23.4,10.5,23.4,23.4s-10.5,23.4-23.4,23.4c0,0,0,0,0,0
					C1005.2,649.1,994.8,638.6,994.8,625.7z"/>
				<path class="st4" d="M7.8,703c0-13,10.5-23.5,23.5-23.5c13,0,23.5,10.5,23.5,23.5c0,13-10.5,23.5-23.5,23.5c0,0,0,0,0,0
					C18.3,726.5,7.8,716,7.8,703z"/>
				<path class="st4" d="M674.8,625.6c0-11.6,9.4-21,21-21s21,9.4,21,21s-9.4,21-21,21S674.8,637.2,674.8,625.6L674.8,625.6z"/>
				<circle class="st13" cx="910.6" cy="640.2" r="21.2"/>
				<path class="st5" d="M456,590c0-12.4,10.1-22.5,22.5-22.5S501,577.6,501,590c0,12.4-10.1,22.5-22.5,22.5c0,0,0,0,0,0
					C466.1,612.5,456,602.4,456,590z"/>
				<path class="st10" d="M419.5,546.7c0-13.6,11-24.6,24.6-24.6c13.6,0,24.6,11,24.6,24.6c0,13.6-11,24.6-24.6,24.6c0,0,0,0,0,0
					C430.5,571.3,419.5,560.3,419.5,546.7z"/>
				<path class="st10" d="M259.7,684c0-12.9,10.5-23.4,23.4-23.4c12.9,0,23.4,10.5,23.4,23.4c0,12.9-10.5,23.4-23.4,23.4
					c0,0,0,0,0,0C270.1,707.4,259.7,696.9,259.7,684z"/>
				<path class="st10" d="M897.8,524.3c0-11.6,9.4-21,21-21s21,9.4,21,21c0,11.6-9.4,21-21,21C907.2,545.3,897.8,535.9,897.8,524.3z
					"/>
				<path class="st10" d="M-30.2,675c0-13.1,10.6-23.6,23.7-23.6s23.6,10.6,23.6,23.7c0,13.1-10.6,23.6-23.6,23.6
					S-30.2,688.1-30.2,675C-30.2,675-30.2,675-30.2,675z"/>
				<path class="st13" d="M524.9,568.3c0-13.7,11.1-24.8,24.8-24.8s24.8,11.1,24.8,24.8s-11.1,24.8-24.8,24.8c0,0,0,0,0,0
					C536,593.1,524.9,582,524.9,568.3z"/>
				<circle class="st8" cx="852.2" cy="709" r="21"/>
				<path class="st9" d="M462.1,670.4c0-14.2,11.5-25.8,25.8-25.8c14.2,0,25.8,11.5,25.8,25.8c0,14.2-11.5,25.8-25.8,25.8
					c0,0,0,0,0,0C473.6,696.2,462.1,684.7,462.1,670.4C462.1,670.4,462.1,670.4,462.1,670.4z"/>
				<path class="st7" d="M309,531.5c0-12.1,9.8-21.8,21.8-21.8s21.8,9.8,21.8,21.8c0,12.1-9.8,21.8-21.8,21.8c0,0,0,0-0.1,0
					C318.7,553.3,309,543.6,309,531.5z"/>
				<path class="st4" d="M575.3,673.7c0-10.2,8.3-18.4,18.4-18.4s18.4,8.3,18.4,18.4s-8.3,18.4-18.4,18.4c0,0,0,0,0,0
					C583.6,692.1,575.3,683.9,575.3,673.7C575.3,673.7,575.3,673.7,575.3,673.7z"/>
				<path class="st11" d="M1111,731.7c0-7.7,6.3-14,14-14s14,6.3,14,14s-6.3,14-14,14S1111,739.4,1111,731.7z"/>
				<path class="st12" d="M1052.7,640.9c0-8.1,6.5-14.6,14.6-14.6c8.1,0,14.6,6.5,14.6,14.6c0,8.1-6.5,14.6-14.6,14.6l0,0
					C1059.2,655.6,1052.7,649,1052.7,640.9C1052.7,641,1052.7,640.9,1052.7,640.9z"/>
				<path class="st4" d="M939.6,701.2c0-8.6,7-15.6,15.6-15.6c8.6,0,15.6,7,15.6,15.6c0,8.6-7,15.6-15.6,15.6c0,0,0,0,0,0
					C946.6,716.8,939.6,709.8,939.6,701.2z"/>
				<circle class="st9" cx="339.2" cy="766" r="15.7"/>
				<path class="st5" d="M640.3,608c0-9.4,7.7-17.1,17.1-17.1s17.1,7.7,17.1,17.1c0,9.4-7.7,17.1-17.1,17.1h0
					C647.9,625.1,640.3,617.5,640.3,608z"/>
				<circle class="st7" cx="106.3" cy="714" r="15.9"/>
				<circle class="st11" cx="583.7" cy="502.6" r="16.3"/>
				<path class="st4" d="M923.8,604.1c0-7.7,6.3-14,14-14s14,6.3,14,14s-6.3,14-14,14S923.8,611.9,923.8,604.1z"/>
				<path class="st8" d="M860.8,739.6c0-7.7,6.3-14,14-14s14,6.3,14,14s-6.3,14-14,14l0,0C867,753.6,860.8,747.3,860.8,739.6z"/>
				<circle class="st7" cx="534.9" cy="674.3" r="17.7"/>
				
					<ellipse transform="matrix(0.9223 -0.3864 0.3864 0.9223 -273.1687 113.2889)" class="st13" cx="145.2" cy="736.2" rx="14.3" ry="14.3"/>
				<path class="st12" d="M252.4,584.6c0-9.2,7.4-16.6,16.6-16.6s16.6,7.4,16.6,16.6c0,9.2-7.4,16.6-16.6,16.6
					C259.8,601.2,252.4,593.8,252.4,584.6L252.4,584.6z"/>
				<path class="st11" d="M872.1,688.9c0-9.3,7.6-16.9,16.9-16.9s16.9,7.6,16.9,16.9s-7.6,16.9-16.9,16.9c0,0,0,0,0,0
					C879.7,705.8,872.1,698.2,872.1,688.9z"/>
				<path class="st4" d="M52.5,621.7c0-7.7,6.3-14,14-14s14,6.3,14,14s-6.3,14-14,14S52.5,629.4,52.5,621.7z"/>
				<path class="st11" d="M395.6,529.3c0-7.7,6.3-14,14-14s14,6.3,14,14s-6.3,14-14,14S395.6,537,395.6,529.3z"/>
				<path class="st9" d="M353.8,583.9c0-8.3,6.8-15.1,15.1-15.1s15.1,6.8,15.1,15.1c0,8.3-6.8,15.1-15.1,15.1
					C360.5,599,353.8,592.2,353.8,583.9C353.8,583.9,353.8,583.9,353.8,583.9z"/>
				<path class="st7" d="M266.2,745.9c0-7.7,6.3-14,14-14s14,6.3,14,14s-6.3,14-14,14S266.2,753.6,266.2,745.9z"/>
				<path class="st4" d="M834.7,604.7c0-7.7,6.3-14,14-14s14,6.3,14,14s-6.3,14-14,14S834.7,612.4,834.7,604.7z"/>
				<path class="st13" d="M730.4,733.2c0-7.7,6.3-14,14-14s14,6.3,14,14s-6.3,14-14,14S730.4,741,730.4,733.2z"/>
				<path class="st6" d="M1005.6,571.5c0-10,8.1-18.2,18.2-18.2c10,0,18.2,8.1,18.2,18.2s-8.1,18.2-18.2,18.2l0,0
					C1013.8,589.7,1005.6,581.6,1005.6,571.5C1005.6,571.5,1005.6,571.5,1005.6,571.5z"/>
				<path class="st7" d="M18.9,665.5c0-7.7,6.3-14,14-14s14,6.3,14,14s-6.3,14-14,14S18.9,673.3,18.9,665.5z"/>
				<path class="st11" d="M756.9,565.7c0-10.1,8.2-18.3,18.3-18.3s18.3,8.2,18.3,18.3s-8.2,18.3-18.3,18.3
					C765.1,584.1,756.9,575.9,756.9,565.7z"/>
				<path class="st6" d="M726.2,493.6c0-7.7,6.3-14,14-14s14,6.3,14,14s-6.3,14-14,14S726.2,501.3,726.2,493.6L726.2,493.6z"/>
				<path class="st13" d="M1050.9,702.8c0-7.7,6.3-14,14-14s14,6.3,14,14s-6.3,14-14,14S1050.9,710.6,1050.9,702.8z"/>
				<path class="st6" d="M287.6,567.9c0-7.5,6-13.5,13.5-13.5s13.5,6,13.5,13.5c0,7.5-6,13.5-13.5,13.5c0,0,0,0,0,0
					C293.7,581.4,287.6,575.3,287.6,567.9C287.6,567.9,287.6,567.9,287.6,567.9z"/>
				<path class="st11" d="M162.8,654.2c0-6.2,5-11.2,11.2-11.2c6.2,0,11.2,5,11.2,11.2c0,6.2-5,11.2-11.2,11.2c0,0,0,0,0,0
					C167.8,665.4,162.8,660.4,162.8,654.2C162.8,654.2,162.8,654.2,162.8,654.2z"/>
				<path class="st13" d="M257.4,537.6c0-5.2,4.2-9.4,9.4-9.4c5.2,0,9.4,4.2,9.4,9.4c0,5.2-4.2,9.4-9.4,9.4h0
					C261.6,546.9,257.4,542.7,257.4,537.6z"/>
				<circle class="st9" cx="1097.6" cy="604.9" r="11.1"/>
				<circle class="st7" cx="1141.6" cy="752.6" r="10.2"/>
				<path class="st4" d="M380.8,556.1c0-5.2,4.2-9.4,9.4-9.4c5.2,0,9.4,4.2,9.4,9.4c0,5.2-4.2,9.4-9.4,9.4h0
					C385,565.5,380.8,561.3,380.8,556.1z"/>
				<circle class="st7" cx="726.3" cy="708.8" r="13"/>
				<path class="st6" d="M447.9,687.8c0-5.2,4.2-9.4,9.4-9.4c5.2,0,9.4,4.2,9.4,9.4s-4.2,9.4-9.4,9.4c0,0,0,0,0,0
					C452.1,697.1,447.9,692.9,447.9,687.8C447.9,687.8,447.9,687.8,447.9,687.8z"/>
				<path class="st10" d="M811.6,757.2c0-9.5,7.7-17.2,17.2-17.2s17.2,7.7,17.2,17.2c0,9.5-7.7,17.2-17.2,17.2c0,0,0,0,0,0
					C819.3,774.3,811.6,766.7,811.6,757.2z"/>
				<path class="st5" d="M658,719.6c0-9.4,7.6-17,17-17s17,7.6,17,17s-7.6,17-17,17l0,0C665.6,736.6,658,729,658,719.6z"/>
				<path class="st5" d="M437.6,469c0-6.4,5.2-11.7,11.7-11.7s11.7,5.2,11.7,11.7s-5.2,11.7-11.7,11.7c0,0,0,0,0,0
					C442.8,480.7,437.6,475.4,437.6,469C437.6,469,437.6,469,437.6,469z"/>
				<circle class="st9" cx="653.6" cy="642.3" r="17.4"/>
				<path class="st13" d="M714,569.3c0-5.2,4.2-9.4,9.4-9.4s9.4,4.2,9.4,9.4s-4.2,9.4-9.4,9.4c0,0,0,0,0,0
					C718.1,578.6,714,574.4,714,569.3z"/>
				<path class="st12" d="M327.9,648.9c0-5.2,4.2-9.4,9.4-9.4c5.2,0,9.4,4.2,9.4,9.4c0,5.2-4.2,9.4-9.4,9.4h0
					C332.1,658.3,327.9,654.1,327.9,648.9z"/>
				<path class="st8" d="M558.8,598.3c0-6.1,4.9-11,11-11s11,4.9,11,11s-4.9,11-11,11l0,0C563.7,609.3,558.8,604.4,558.8,598.3z"/>
				<path class="st4" d="M420.9,750.5c0-5.2,4.2-9.4,9.4-9.4s9.4,4.2,9.4,9.4c0,5.2-4.2,9.4-9.4,9.4c0,0,0,0,0,0
					C425.1,759.8,420.9,755.6,420.9,750.5z"/>
				<circle class="st12" cx="201.4" cy="533" r="12.8"/>
				<path class="st4" d="M1053.6,612.6c0-5.2,4.2-9.4,9.4-9.4c5.2,0,9.4,4.2,9.4,9.4c0,5.2-4.2,9.4-9.4,9.4l0,0
					C1057.8,622,1053.6,617.8,1053.6,612.6z"/>
				
					<ellipse transform="matrix(0.2303 -0.9731 0.9731 0.2303 -602.8088 622.8199)" class="st7" cx="92.3" cy="692.5" rx="9.8" ry="9.8"/>
				<circle class="st8" cx="484.7" cy="470.5" r="14.1"/>
				<path class="st13" d="M302.2,700.1c0-5.2,4.2-9.4,9.4-9.4c5.2,0,9.4,4.2,9.4,9.4c0,5.2-4.2,9.4-9.4,9.4h0
					C306.4,709.4,302.2,705.2,302.2,700.1z"/>
				<path class="st12" d="M1079.5,630.5c0-5.2,4.2-9.4,9.4-9.4c5.2,0,9.4,4.2,9.4,9.4c0,5.2-4.2,9.4-9.4,9.4l0,0
					C1083.7,639.8,1079.5,635.6,1079.5,630.5z"/>
				<path class="st5" d="M925.5,678.8c0-5.2,4.2-9.4,9.4-9.4c5.2,0,9.4,4.2,9.4,9.4c0,5.2-4.2,9.4-9.4,9.4l0,0
					C929.7,688.2,925.5,684,925.5,678.8z"/>
				<circle class="st11" cx="926" cy="708.5" r="14.5"/>
				<path class="st4" d="M162.5,633.7c0-5.2,4.2-9.4,9.4-9.4s9.4,4.2,9.4,9.4s-4.2,9.4-9.4,9.4c0,0,0,0,0,0
					C166.7,643.1,162.5,638.9,162.5,633.7z"/>
				<path class="st11" d="M639.6,715.3c0-5.2,4.2-9.4,9.4-9.3c5.2,0,9.4,4.2,9.3,9.4c0,5.2-4.2,9.3-9.4,9.3
					C643.8,724.7,639.6,720.5,639.6,715.3C639.6,715.4,639.6,715.4,639.6,715.3z"/>
				<circle class="st7" cx="412.8" cy="706.9" r="16.9"/>
				<path class="st6" d="M513.5,555.1c0-3.9,3.2-7.1,7.1-7.1c3.9,0,7.1,3.2,7.1,7.1c0,3.9-3.2,7.1-7.1,7.1c0,0,0,0,0,0
					C516.7,562.3,513.5,559.1,513.5,555.1z"/>
				<path class="st8" d="M311,503.3c0-4.7,3.8-8.6,8.6-8.6c4.7,0,8.6,3.8,8.6,8.6c0,4.7-3.8,8.6-8.6,8.6c0,0,0,0,0,0
					C314.8,511.9,311,508,311,503.3z"/>
				<path class="st4" d="M1011.6,595.2c0-3.5,2.8-6.3,6.2-6.3c3.5,0,6.3,2.8,6.3,6.2s-2.8,6.3-6.2,6.3c0,0,0,0,0,0
					C1014.4,601.5,1011.6,598.7,1011.6,595.2z"/>
				<path class="st4" d="M397.2,685.7c0-3.4,2.8-6.2,6.2-6.2s6.2,2.8,6.2,6.2c0,3.4-2.8,6.2-6.2,6.2c0,0,0,0,0,0
					C400,691.9,397.2,689.1,397.2,685.7z"/>
				<path class="st12" d="M636.6,564.7c0-3.5,2.8-6.2,6.2-6.2s6.2,2.8,6.2,6.2s-2.8,6.2-6.2,6.2l0,0
					C639.4,570.9,636.6,568.1,636.6,564.7z"/>
				<path class="st11" d="M538.7,533.8c0-3.5,2.8-6.3,6.2-6.3c3.5,0,6.3,2.8,6.3,6.2c0,3.5-2.8,6.3-6.2,6.3c0,0,0,0,0,0
					C541.5,540.1,538.7,537.3,538.7,533.8z"/>
				<path class="st6" d="M1172.5,756c0-5.8,4.7-10.5,10.5-10.5c5.8,0,10.4,4.7,10.4,10.5c0,5.8-4.7,10.5-10.5,10.5l0,0
					C1177.2,766.5,1172.5,761.8,1172.5,756z"/>
				<path class="st8" d="M565.3,739c0-3.4,2.8-6.2,6.2-6.2c3.4,0,6.2,2.8,6.2,6.2c0,3.4-2.8,6.2-6.2,6.2
					C568.1,745.2,565.3,742.5,565.3,739C565.3,739,565.3,739,565.3,739z"/>
				<path class="st7" d="M625.8,714.3c0-3.5,2.8-6.3,6.2-6.3c3.5,0,6.3,2.8,6.3,6.2c0,3.5-2.8,6.3-6.2,6.3c0,0,0,0,0,0
					C628.5,720.6,625.8,717.8,625.8,714.3z"/>
				<circle class="st6" cx="603.1" cy="470.6" r="6.8"/>
				<path class="st10" d="M420.5,496.4c0-3.8,3.1-6.9,6.9-6.9s6.9,3.1,6.9,6.9c0,3.8-3.1,6.9-6.9,6.9l0,0
					C423.6,503.3,420.5,500.2,420.5,496.4z"/>
				<path class="st5" d="M360.5,701.8c0-4.2,3.4-7.6,7.6-7.6c4.2,0,7.6,3.4,7.6,7.6s-3.4,7.6-7.6,7.6c0,0,0,0,0,0
					C363.9,709.5,360.5,706,360.5,701.8z"/>
				
					<ellipse transform="matrix(0.2472 -0.969 0.969 0.2472 -55.0989 869.5687)" class="st13" cx="532.1" cy="470.2" rx="7.1" ry="7.1"/>
				<path class="st4" d="M534.3,459.9c0-3.5,2.8-6.2,6.2-6.2s6.2,2.8,6.2,6.3c0,3.5-2.8,6.2-6.2,6.2c0,0,0,0,0,0
					C537.1,466.2,534.3,463.4,534.3,459.9C534.3,459.9,534.3,459.9,534.3,459.9z"/>
				<path class="st10" d="M484.4,732.1c0-4.3,3.5-7.8,7.8-7.8s7.8,3.5,7.8,7.8s-3.5,7.8-7.8,7.8l0,0
					C487.9,739.8,484.4,736.4,484.4,732.1z"/>
				<path class="st6" d="M306,678.7c0-6.4,5.2-11.6,11.7-11.6s11.6,5.2,11.6,11.7c0,6.4-5.2,11.6-11.6,11.6
					C311.2,690.4,306,685.1,306,678.7C306,678.7,306,678.7,306,678.7z"/>
				<circle class="st6" cx="848.1" cy="501.1" r="6.4"/>
				<path class="st7" d="M1113.2,702.7c0-7.7,6.3-14,14-14s14,6.3,14,14s-6.3,14-14,14S1113.2,710.4,1113.2,702.7L1113.2,702.7z"/>
				<circle class="st13" cx="1199.1" cy="685" r="6.2"/>
				<path class="st9" d="M658.2,691c0-3.5,2.8-6.2,6.2-6.2s6.2,2.8,6.2,6.2s-2.8,6.2-6.2,6.2c0,0,0,0,0,0
					C661,697.2,658.2,694.5,658.2,691C658.2,691,658.2,691,658.2,691z"/>
				<path class="st9" d="M810.6,502.7c0-8.4,6.8-15.1,15.1-15.2c8.4,0,15.1,6.8,15.2,15.1c0,8.4-6.8,15.1-15.1,15.2c0,0,0,0,0,0
					C817.3,517.9,810.6,511.1,810.6,502.7z"/>
				<path class="st12" d="M348.2,699.3c0-3.5,2.8-6.3,6.2-6.3c3.5,0,6.3,2.8,6.3,6.2s-2.8,6.3-6.2,6.3c0,0,0,0,0,0
					C351,705.6,348.2,702.8,348.2,699.3z"/>
				<path class="st5" d="M928.1,625.8c0-4.3,3.5-7.8,7.8-7.8s7.8,3.5,7.8,7.8s-3.5,7.8-7.8,7.8S928.1,630.1,928.1,625.8L928.1,625.8
					z"/>
				<path class="st4" d="M133,706.8c0-6.5,5.3-11.8,11.8-11.8c6.5,0,11.8,5.3,11.8,11.8c0,6.5-5.3,11.8-11.8,11.8
					S133,713.4,133,706.8L133,706.8z"/>
				<path class="st7" d="M965.8,687.2c0-3.5,2.8-6.2,6.2-6.2s6.2,2.8,6.2,6.2s-2.8,6.2-6.2,6.2l0,0
					C968.6,693.5,965.8,690.7,965.8,687.2z"/>
				<path class="st7" d="M1100.4,712.3c0-4.1,3.4-7.5,7.5-7.5s7.5,3.4,7.5,7.5s-3.4,7.5-7.5,7.5l0,0
					C1103.8,719.8,1100.4,716.4,1100.4,712.3z"/>
				<path class="st4" d="M764.3,744.4c0-5.9,4.8-10.7,10.7-10.7s10.7,4.8,10.7,10.7s-4.8,10.7-10.7,10.7h0
					C769.1,755.1,764.3,750.3,764.3,744.4z"/>
				<circle class="st5" cx="577.2" cy="582.7" r="6.2"/>
				<path class="st6" d="M159,741.1c0-4.4,3.6-8,8-8s8,3.6,8,8s-3.6,8-8,8S159,745.5,159,741.1z"/>
				<path class="st6" d="M994.2,649.4c0-3.5,2.8-6.2,6.2-6.2s6.2,2.8,6.2,6.2s-2.8,6.2-6.2,6.2C997,655.7,994.2,652.9,994.2,649.4
					C994.2,649.4,994.2,649.4,994.2,649.4z"/>
				<circle class="st5" cx="912.7" cy="594.5" r="9.8"/>
				<path class="st11" d="M635.1,581.7c0-6.1,5-11,11-10.9c6.1,0,11,5,10.9,11c0,6-4.9,10.9-10.9,10.9
					C640,592.7,635.1,587.8,635.1,581.7z"/>
				<path class="st10" d="M881.1,720.3c0-7.6,6.2-13.8,13.8-13.8s13.8,6.2,13.8,13.8s-6.2,13.8-13.8,13.8
					C887.3,734.1,881.1,727.9,881.1,720.3C881.1,720.3,881.1,720.3,881.1,720.3z"/>
				<path class="st9" d="M473.9,637.3c0-4.3,3.5-7.9,7.9-7.9c4.3,0,7.9,3.5,7.9,7.9c0,4.3-3.5,7.9-7.9,7.9
					C477.4,645.2,473.9,641.7,473.9,637.3L473.9,637.3z"/>
				<path class="st8" d="M866.4,609.9c0-5,4.1-9.1,9.1-9.1s9.1,4.1,9.1,9.1s-4.1,9.1-9.1,9.1S866.4,614.9,866.4,609.9L866.4,609.9z"
					/>
				<path class="st10" d="M1113.5,753.2c0-4.3,3.5-7.8,7.8-7.8s7.8,3.5,7.8,7.8s-3.5,7.8-7.8,7.8
					C1117,760.9,1113.5,757.4,1113.5,753.2C1113.5,753.2,1113.5,753.2,1113.5,753.2z"/>
				<path class="st10" d="M338,577.3c0-4.6,3.7-8.3,8.3-8.3s8.3,3.7,8.3,8.3c0,4.6-3.7,8.3-8.3,8.3c0,0,0,0,0,0
					C341.8,585.7,338,581.9,338,577.3C338,577.3,338,577.3,338,577.3z"/>
				<path class="st13" d="M499.8,601.9c0-11.1,9-20.1,20.1-20.1c11.1,0,20.1,9,20.1,20.1c0,11.1-9,20.1-20.1,20.1c0,0,0,0,0,0
					C508.8,622.1,499.8,613.1,499.8,601.9C499.8,601.9,499.8,601.9,499.8,601.9z"/>
				<path class="st5" d="M1033.6,605c0-4.2,3.4-7.6,7.6-7.6c4.2,0,7.6,3.4,7.6,7.6c0,4.2-3.4,7.6-7.6,7.6
					C1037,612.6,1033.6,609.2,1033.6,605C1033.6,605,1033.6,605,1033.6,605z"/>
				<path class="st6" d="M476.9,553.8c0-3.5,2.8-6.3,6.2-6.3c3.5,0,6.3,2.8,6.3,6.2c0,3.5-2.8,6.3-6.2,6.3c0,0,0,0,0,0
					C479.7,560.1,476.9,557.3,476.9,553.8z"/>
				<path class="st11" d="M506.5,694.5c0-5.4,4.4-9.8,9.8-9.8c5.4,0,9.8,4.4,9.8,9.8c0,5.4-4.4,9.8-9.8,9.8S506.5,699.9,506.5,694.5
					C506.5,694.5,506.5,694.5,506.5,694.5z"/>
				<path class="st6" d="M871.4,625.1c0-3.4,2.8-6.2,6.2-6.2s6.2,2.8,6.2,6.2c0,3.4-2.8,6.2-6.2,6.2l0,0
					C874.1,631.3,871.4,628.5,871.4,625.1z"/>
				<path class="st8" d="M99.1,682.8c0-4,3.3-7.3,7.3-7.3c4,0,7.3,3.3,7.3,7.3c0,4-3.3,7.3-7.3,7.3c0,0,0,0,0,0
					C102.3,690.1,99.1,686.9,99.1,682.8C99.1,682.8,99.1,682.8,99.1,682.8z"/>
				<path class="st12" d="M772.3,541.4c0-3.5,2.8-6.3,6.2-6.3c3.5,0,6.3,2.8,6.3,6.2c0,3.5-2.8,6.3-6.2,6.3c0,0,0,0,0,0
					C775.1,547.6,772.3,544.8,772.3,541.4z"/>
				
					<ellipse transform="matrix(0.9996 -2.931733e-02 2.931733e-02 0.9996 -19.9193 10.1929)" class="st11" cx="337.6" cy="684.4" rx="6.7" ry="6.7"/>
				<path class="st13" d="M127.1,752.9c0-3.5,2.8-6.2,6.3-6.2c3.5,0,6.2,2.8,6.2,6.2s-2.8,6.2-6.3,6.2c0,0,0,0,0,0
					C129.9,759.1,127.1,756.3,127.1,752.9C127.1,752.9,127.1,752.9,127.1,752.9z"/>
				<path class="st12" d="M294.9,546.2c0-4.5,3.7-8.2,8.2-8.2c4.5,0,8.2,3.7,8.2,8.2c0,4.5-3.7,8.2-8.2,8.2c0,0,0,0,0,0
					C298.6,554.4,294.9,550.8,294.9,546.2C294.9,546.2,294.9,546.2,294.9,546.2z"/>
				<path class="st4" d="M1147.9,641.4c0-3.5,2.8-6.3,6.2-6.3c3.5,0,6.3,2.8,6.3,6.2s-2.8,6.3-6.2,6.3c0,0,0,0,0,0
					C1150.7,647.7,1147.9,644.9,1147.9,641.4z"/>
				<path class="st6" d="M81.7,726.4c0-3.5,2.8-6.2,6.3-6.2s6.2,2.8,6.2,6.2s-2.8,6.2-6.3,6.2c0,0,0,0,0,0
					C84.5,732.7,81.7,729.9,81.7,726.4C81.7,726.4,81.7,726.4,81.7,726.4z"/>
				<path class="st12" d="M379.4,710.3c0-3.5,2.8-6.3,6.2-6.3c3.5,0,6.3,2.8,6.3,6.2s-2.8,6.3-6.2,6.3c0,0,0,0,0,0
					C382.2,716.6,379.4,713.8,379.4,710.3z"/>
				<circle class="st4" cx="511.9" cy="724.9" r="12.1"/>
				<path class="st10" d="M431.8,702c0-3.5,2.8-6.3,6.3-6.3s6.3,2.8,6.3,6.3c0,3.5-2.8,6.3-6.3,6.3
					C434.6,708.3,431.8,705.5,431.8,702L431.8,702z"/>
				<path class="st13" d="M1027.3,678.3c0-3.5,2.8-6.3,6.2-6.3c3.5,0,6.3,2.8,6.3,6.2s-2.8,6.3-6.2,6.3c0,0,0,0,0,0
					C1030.1,684.5,1027.3,681.7,1027.3,678.3z"/>
				<path class="st8" d="M623.6,644.2c0-3.5,2.8-6.3,6.2-6.3c3.5,0,6.3,2.8,6.3,6.2c0,3.5-2.8,6.3-6.2,6.3c0,0,0,0,0,0
					C626.4,650.4,623.6,647.6,623.6,644.2z"/>
			</g>
		</g>
	</g>
</g>
</svg>
