<svg xmlns="http://www.w3.org/2000/svg" xmlns:xlink="http://www.w3.org/1999/xlink" viewBox="0 0 1200.09 753.41">
  <defs>
    <linearGradient
      id="New_Gradient_Swatch_1"
      x1="111.65"
      y1="865.06"
      x2="1088.35"
      y2="-111.65"
      gradientUnits="userSpaceOnUse"
    >
      <stop offset="0" stop-color="#007787" />
      <stop offset="0.66" stop-color="#006b88" />
      <stop offset="1" stop-color="#006289" />
    </linearGradient>
  </defs>
  <title>hl4</title>
  <g id="Layer_2" data-name="Layer 2">
    <g id="High_level_4" data-name="High level 4">
      <text
        transform="translate(136.05 403.13)"
        style="font-size:35px;fill:#fff;font-family:Montserrat-Medium, Montserrat;font-weight:500"
      >
        <tspan style="letter-spacing:-0.010002790178571428em">
          W
          <tspan x="39.06" y="0" style="letter-spacing:-0.007017299107142857em">h</tspan>
          <tspan x="62.65" y="0" style="letter-spacing:-0.009988839285714285em">en people h</tspan>
          <tspan x="269.29" y="0" style="letter-spacing:-0.019991629464285714em">a</tspan>
          <tspan x="289.52" y="0" style="letter-spacing:-0.025em">v</tspan>
          <tspan x="308.21" y="0">e t</tspan>
          <tspan x="352.48" y="0" style="letter-spacing:-0.007017299107142857em">h</tspan>
          <tspan x="376.07" y="0">e</tspan>
          <tspan x="406.21" y="0" style="letter-spacing:-0.0169921875em">c</tspan>
          <tspan x="425.6" y="0" style="letter-spacing:-0.009988839285714285em">ha</tspan>
          <tspan x="469.66" y="0" style="letter-spacing:-0.0070033482142857146em">n</tspan>
          <tspan x="493.25" y="0" style="letter-spacing:-0.017996651785714284em">c</tspan>
          <tspan x="512.61" y="0">e</tspan>
          <tspan x="542.74" y="0" style="letter-spacing:-0.027999441964285714em">t</tspan>
          <tspan x="556.25" y="0">o</tspan>
          <tspan x="0" y="51">imp</tspan>
          <tspan x="69.58" y="51" style="letter-spacing:-0.022000558035714286em">r</tspan>
          <tspan x="83.16" y="51" style="letter-spacing:-0.025em">ov</tspan>
          <tspan x="123.2" y="51">e t</tspan>
          <tspan x="167.47" y="51" style="letter-spacing:-0.007017299107142857em">h</tspan>
          <tspan x="191.06" y="51">eir li</tspan>
          <tspan x="263.44" y="51" style="letter-spacing:-0.025em">v</tspan>
          <tspan x="282.13" y="51" style="letter-spacing:-0.009988839285714285em">es a</tspan>
          <tspan x="350.03" y="51" style="letter-spacing:-0.0070033482142857146em">n</tspan>
          <tspan x="373.62" y="51" style="letter-spacing:-0.009988839285714285em">d build t</tspan>
          <tspan x="518.62" y="51" style="letter-spacing:-0.007017299107142857em">h</tspan>
          <tspan x="542.21" y="51" style="letter-spacing:-0.009988839285714285em">eir</tspan>
        </tspan>
        <tspan style="letter-spacing:-0.017996651785714284em">
          <tspan x="0" y="102">c</tspan>
          <tspan x="19.35" y="102" style="letter-spacing:-0.010002790178571428em">ommunities, t</tspan>
          <tspan x="263.37" y="102" style="letter-spacing:-0.007017299107142857em">h</tspan>
          <tspan x="286.96" y="102" style="letter-spacing:-0.019991629464285714em">e</tspan>
          <tspan x="307.68" y="102" style="letter-spacing:-0.010002790178571428em">y will sei</tspan>
          <tspan x="452.05" y="102">z</tspan>
          <tspan x="469.66" y="102" style="letter-spacing:-0.009988839285714285em">e t</tspan>
          <tspan x="513.93" y="102" style="letter-spacing:-0.007017299107142857em">h</tspan>
          <tspan x="537.52" y="102" style="letter-spacing:-0.010002790178571428em">e</tspan>
        </tspan>
        <tspan style="letter-spacing:-0.010002790178571428em">
          <tspan x="0" y="153">oppo</tspan>
          <tspan x="90.79" y="153" style="letter-spacing:0.0049944196428571425em">r</tspan>
          <tspan x="105.31" y="153">tuni</tspan>
          <tspan x="175.7" y="153" style="letter-spacing:-0.019991629464285714em">t</tspan>
          <tspan x="189.49" y="153">y a</tspan>
          <tspan x="238.35" y="153" style="letter-spacing:-0.007017299107142857em">n</tspan>
          <tspan x="261.94" y="153">d</tspan>
          <tspan x="294.52" y="153" style="letter-spacing:-0.017996651785714284em">c</tspan>
          <tspan x="313.88" y="153" style="letter-spacing:-0.009988839285714285em">ont</tspan>
          <tspan x="373.37" y="153" style="letter-spacing:-0.0169921875em">r</tspan>
          <tspan x="387.13" y="153">ibu</tspan>
          <tspan x="443.41" y="153" style="letter-spacing:-0.027985491071428573em">t</tspan>
          <tspan x="456.92" y="153">e</tspan>
          <tspan x="487.05" y="153" style="letter-spacing:-0.027985491071428573em">t</tspan>
          <tspan x="500.56" y="153">o a</tspan>
        </tspan>
        <tspan style="font-family:Montserrat-Bold, Montserrat;font-weight:700">
          <tspan x="0" y="204" style="letter-spacing:-0.010002790178571428em">BE</tspan>
          <tspan x="49.56" y="204">T</tspan>
          <tspan x="71.19" y="204" style="letter-spacing:-0.010002790178571428em">TER F</tspan>
          <tspan x="172.55" y="204" style="letter-spacing:-0.021986607142857145em">UT</tspan>
          <tspan x="220.22" y="204" style="letter-spacing:-0.010002790178571428em">URE</tspan>
          <tspan
            x="295.96"
            y="204"
            style="font-family:Montserrat-Medium, Montserrat;font-weight:500;letter-spacing:-0.010002790178571428em"
          ></tspan>
          <tspan
            x="305.02"
            y="204"
            style="font-family:Montserrat-Medium, Montserrat;font-weight:500;letter-spacing:-0.017996651785714284em"
          >
            f
          </tspan>
          <tspan
            x="316.75"
            y="204"
            style="font-family:Montserrat-Medium, Montserrat;font-weight:500;letter-spacing:-0.009988839285714285em"
          >
            or all of us.
          </tspan>
        </tspan>
      </text>
    </g>
    <g id="Transition">
      <rect width="1200" height="753.41" style="fill:url(#New_Gradient_Swatch_1)" />
      <text
        transform="translate(136.05 403.13)"
        style="font-size:35px;fill:#fff;font-family:Montserrat-Medium, Montserrat;font-weight:500"
      >
        <tspan style="letter-spacing:-0.010002790178571428em">
          W
          <tspan x="39.06" y="0" style="letter-spacing:-0.007017299107142857em">h</tspan>
          <tspan x="62.65" y="0" style="letter-spacing:-0.009988839285714285em">en people h</tspan>
          <tspan x="269.29" y="0" style="letter-spacing:-0.019991629464285714em">a</tspan>
          <tspan x="289.52" y="0" style="letter-spacing:-0.025em">v</tspan>
          <tspan x="308.21" y="0">e t</tspan>
          <tspan x="352.48" y="0" style="letter-spacing:-0.007017299107142857em">h</tspan>
          <tspan x="376.07" y="0">e</tspan>
          <tspan x="406.21" y="0" style="letter-spacing:-0.0169921875em">c</tspan>
          <tspan x="425.6" y="0" style="letter-spacing:-0.009988839285714285em">ha</tspan>
          <tspan x="469.66" y="0" style="letter-spacing:-0.0070033482142857146em">n</tspan>
          <tspan x="493.25" y="0" style="letter-spacing:-0.017996651785714284em">c</tspan>
          <tspan x="512.61" y="0">e</tspan>
          <tspan x="542.74" y="0" style="letter-spacing:-0.027999441964285714em">t</tspan>
          <tspan x="556.25" y="0">o</tspan>
          <tspan x="0" y="51">imp</tspan>
          <tspan x="69.58" y="51" style="letter-spacing:-0.022000558035714286em">r</tspan>
          <tspan x="83.16" y="51" style="letter-spacing:-0.025em">ov</tspan>
          <tspan x="123.2" y="51">e t</tspan>
          <tspan x="167.47" y="51" style="letter-spacing:-0.007017299107142857em">h</tspan>
          <tspan x="191.06" y="51">eir li</tspan>
          <tspan x="263.44" y="51" style="letter-spacing:-0.025em">v</tspan>
          <tspan x="282.13" y="51" style="letter-spacing:-0.009988839285714285em">es a</tspan>
          <tspan x="350.03" y="51" style="letter-spacing:-0.0070033482142857146em">n</tspan>
          <tspan x="373.62" y="51" style="letter-spacing:-0.009988839285714285em">d build t</tspan>
          <tspan x="518.62" y="51" style="letter-spacing:-0.007017299107142857em">h</tspan>
          <tspan x="542.21" y="51" style="letter-spacing:-0.009988839285714285em">eir</tspan>
        </tspan>
        <tspan style="letter-spacing:-0.017996651785714284em">
          <tspan x="0" y="102">c</tspan>
          <tspan x="19.35" y="102" style="letter-spacing:-0.010002790178571428em">ommunities, t</tspan>
          <tspan x="263.37" y="102" style="letter-spacing:-0.007017299107142857em">h</tspan>
          <tspan x="286.96" y="102" style="letter-spacing:-0.019991629464285714em">e</tspan>
          <tspan x="307.68" y="102" style="letter-spacing:-0.010002790178571428em">y will sei</tspan>
          <tspan x="452.05" y="102">z</tspan>
          <tspan x="469.66" y="102" style="letter-spacing:-0.009988839285714285em">e t</tspan>
          <tspan x="513.93" y="102" style="letter-spacing:-0.007017299107142857em">h</tspan>
          <tspan x="537.52" y="102" style="letter-spacing:-0.010002790178571428em">e</tspan>
        </tspan>
        <tspan style="letter-spacing:-0.010002790178571428em">
          <tspan x="0" y="153">oppo</tspan>
          <tspan x="90.79" y="153" style="letter-spacing:0.0049944196428571425em">r</tspan>
          <tspan x="105.31" y="153">tuni</tspan>
          <tspan x="175.7" y="153" style="letter-spacing:-0.019991629464285714em">t</tspan>
          <tspan x="189.49" y="153">y a</tspan>
          <tspan x="238.35" y="153" style="letter-spacing:-0.007017299107142857em">n</tspan>
          <tspan x="261.94" y="153">d</tspan>
          <tspan x="294.52" y="153" style="letter-spacing:-0.017996651785714284em">c</tspan>
          <tspan x="313.88" y="153" style="letter-spacing:-0.009988839285714285em">ont</tspan>
          <tspan x="373.37" y="153" style="letter-spacing:-0.0169921875em">r</tspan>
          <tspan x="387.13" y="153">ibu</tspan>
          <tspan x="443.41" y="153" style="letter-spacing:-0.027985491071428573em">t</tspan>
          <tspan x="456.92" y="153">e</tspan>
          <tspan x="487.05" y="153" style="letter-spacing:-0.027985491071428573em">t</tspan>
          <tspan x="500.56" y="153">o a</tspan>
        </tspan>
        <tspan style="font-family:Montserrat-Bold, Montserrat;font-weight:700">
          <tspan x="0" y="204" style="letter-spacing:-0.010002790178571428em">BE</tspan>
          <tspan x="49.56" y="204">T</tspan>
          <tspan x="71.19" y="204" style="letter-spacing:-0.010002790178571428em">TER F</tspan>
          <tspan x="172.55" y="204" style="letter-spacing:-0.021986607142857145em">UT</tspan>
          <tspan x="220.22" y="204" style="letter-spacing:-0.010002790178571428em">URE</tspan>
          <tspan
            x="295.96"
            y="204"
            style="font-family:Montserrat-Medium, Montserrat;font-weight:500;letter-spacing:-0.010002790178571428em"
          ></tspan>
          <tspan
            x="305.02"
            y="204"
            style="font-family:Montserrat-Medium, Montserrat;font-weight:500;letter-spacing:-0.017996651785714284em"
          >
            f
          </tspan>
          <tspan
            x="316.75"
            y="204"
            style="font-family:Montserrat-Medium, Montserrat;font-weight:500;letter-spacing:-0.009988839285714285em"
          >
            or all of us.
          </tspan>
        </tspan>
      </text>
      <g id="road">
        <path
          d="M190.92,305.89c36.92,0,27.94-30.47,78.82-39.45,10.8-1.9,21.94,8,21.94,0s-10-15,0-16,12,0,21.95,0,18-8.86,19.95-.44,15,7.43,20,7.43,5,3,11,4,6,1,11-2a38.27,38.27,0,0,1,19-5c7,0,8,4,17,3s13,10.55,17,8.27,0-13.26,11-15.26,23.95,0,29.93,3,11,7.56,19.95,12.26,8,7.27,11,0,9-14.26,14-15.26,10-3,16,1,12,12.55,11,14.26-3,9.68,5,8.69,14,4,18.95,1,7-5,13-5-4-4,6,0,.27,9,16.1,5,16.82-12.39,19.81-9.68,12-1.71,18,0,19.95,5.27,23.94,0,16-13.26,21-15.26,21-8,26.94-11,17-13,21.95-10,20,8,23.94,13,21.95,6.1,24.94,14.52,7,10.42,11,10.42,12-4,19-5,9.19-6.87,22-5.43,26.75,8.76,27.66,9.26"
          style="fill:none;stroke:#fff;stroke-miterlimit:10;stroke-width:2px;opacity:0.7000000000000001"
        />
        <polyline
          points="0.09 322.38 731.64 289.39 909.57 309.08"
          style="fill:none;stroke:#fff;stroke-miterlimit:10;stroke-width:2px;opacity:0.7000000000000001"
        />
      </g>
      <g id="motorcyle" style="opacity:0.7000000000000001">
        <path
          d="M1200.09,203.59c-4,0-44.69-.88-48.57-2.1s-1.17-4.27-4.7-5.67-58-13.57-99.27-7.39c0,0-12.3,1.53-16,5.19,0,0-45.23-3-46.89-2.33s-31.92,9-31.92,9a68.25,68.25,0,0,0-5.66,25.27c-.33,12.64-10.64,103.09-10.64,105.75s28.6,16.63,31.93,16.63,211.16,7.65,211.16,7.65a63.62,63.62,0,0,1,1-8.31c1-6.7,14.84-127.37,17.18-128.59"
          style="fill:none;stroke:#fff;stroke-miterlimit:10;stroke-width:2px"
        />
        <path
          d="M952.44,186.69c-5.32-1.05-16,0-19,6.76-1.46,3.29-14,9.15-17,10.48s-16.63,20.28-19.29,21.94-2.69,7.65-8.66,8.65S876,247.16,874,248.49s-4.65,12-6.31,12.3-5,2.33-5.33,4.32.34,4.72-1.66,6a7.45,7.45,0,0,0-3.66,5.62c-.33,2.66-3.32,4.33,0,6s-.33,3.66,4.33,3.66,5.65,0,7.31-1,2.33,2,5,.66,7-1.66,8-2.66,3.66,1.33,4-2.66-2-4.65-2.33-6-4-4.66-4-6.32,1.33-2.66,3-3,7.65-2.33,10.64-5,7.31-5,10.31-7.65,4.65-4,7.31-5,5.32-1.33,8.65-3.32,2.66-.67,7.65-4,6-6.32,7-3.66,3.66,6.32,2.66,14,1.66,31.25,0,35.58-4.32,15.63-4.32,20,3.66,8.31.33,11.31a80.32,80.32,0,0,1-11.64,8.64c-3,1.66-15.63,8.65-18.29,11.31s-8.64,10-10,11-6.65,2.66-8,7-4.33,6-4.33,7.64,4,3.33,3.33,6.66-.67,6.65,0,11.63,4,14,2.66,16.63-.67,25.61-1,27.27,11,3,11,5-3.32,7-1,9.31,2.32,9.31,2.32,10.31-.66,6.65-.66,6.65c-3,3.32-8.65,6.65-8.31,10s1.66,11.64,8.31,11.31,6,1.66,11,3,14.3,3.66,17,1.33,3.66-17.62,1.33-19.28-5.65-8.65-5.65-13-3-16.3-2.66-18.29,6.93-6.65,9.62-6.32,7.67-1.66,5-8.65-9.31-17.62-10-22.94-.33-7.65,3.33-8,7.32-7.32,10.64-6.65,7.65,2.32,10.64-4,15.2-25,16.63-26.61"
          style="fill:none;stroke:#fff;stroke-miterlimit:10;stroke-width:2px"
        />
        <path
          d="M1046.05,185.64c-3.65-4.46-15.13-4.33-18.12-4.66s-9.64-.33-12-1.66"
          style="fill:none;stroke:#fff;stroke-miterlimit:10;stroke-width:2px"
        />
        <path
          d="M1023.94,368.93c-6-.66-33.59-1.76-56.53,2.38-12.31,2.21-25.28,14.18-30.93,25.88-1.15,2.38-3,9.25-3,11.91s7.65,6,7.65,6c8,5,9.34,1.13,10.36-5,3.27-19.62,26.88-36.58,41.51-37.91,12.92-1.17,27.94-2,38.91,0s38.91,13.64,45.89,35.92c1.52,4.85,7,15,0,15,0,0-7.2-1.11-7.2.67s1.77,36.35,1.77,36.35-.65,4-4.1,3.55a49.56,49.56,0,0,0-8.62,0"
          style="fill:none;stroke:#fff;stroke-linecap:round;stroke-miterlimit:10;stroke-width:2px"
        />
        <path
          d="M953.41,455.94c2.55-2.28,7.46-6.34,9.67-6,3.89.65,34.41,13,34.41,15.59s-11,0-14.28,3.89-2.49,3.9-8.71,2.6-5.58,7.14-8.18,7.14-2.59,5.2-1.94,7.15,16.23,16.23,16.23,16.23l-1.3,15.58s-5.84,1.3-7.79,0,2.71,7.78,3,13.31,3.62,15.92,0,14-10.12-20.13-13.37-25.33-2-13.63-4.55-16.88-11.68-23.38-11.68-23.38-.43-22.08,6.6-22.08"
          style="fill:none;stroke:#fff;stroke-miterlimit:10;stroke-width:2px"
        />
        <path
          d="M974.33,447.56c5.16-14.76,12.15-23.82,19.85-23.82,15.88,0,28.76,38.63,28.76,86.29s-12.88,86.3-28.76,86.3c-11.68,0-21.73-20.87-26.24-50.85"
          style="fill:none;stroke:#fff;stroke-linecap:round;stroke-miterlimit:10;stroke-width:2px"
        />
        <path
          d="M1000,419.41h34.25s27.6,16,25.27,94.45c0,0-4,84.5-26.27,84.5h-31.59"
          style="fill:none;stroke:#fff;stroke-linecap:round;stroke-miterlimit:10;stroke-width:2px"
        />
        <path
          d="M892.59,482.26c.88,2,4.43,4,6.87,4.44s4.65,1.55,5.1,3.32,1.77,6-1.33,6-4.88,1.55-4.33,3.32,3,6.21,6.32,6.88S919,508,921,506.21s2.22-5.55,3.55-6.21,7.32,2.44,9,2.22a9.64,9.64,0,0,0,5-3.11c1.11-1.33,2-2.88,4.87-3.1s-1.77-11.1-1.77-12.76"
          style="fill:none;stroke:#fff;stroke-miterlimit:10;stroke-width:2px"
        />
        <path
          d="M1087,422s19.51.45,19.07-18.18S1087,386.49,1087,386.49s-2.15-4.88-5.73-4.88-10.23,2.67-11.12,0,.45-5.32,2.22-7.09,22.61-4,25.27-4,4.44,4,10.64,2.66,19.51-6.21,23.5-10.64,17.3-3.55,17.3-3.55"
          style="fill:none;stroke:#fff;stroke-linecap:round;stroke-miterlimit:10;stroke-width:2px"
        />
        <line
          x1="983.04"
          y1="196.94"
          x2="967.94"
          y2="339.94"
          style="fill:none;stroke:#fff;stroke-linecap:round;stroke-miterlimit:10;stroke-width:2px"
        />
        <path
          d="M955.6,183.31c3.49-.83,14.63-5.82,16.46-7.32s14-9,17.3-9.64,13-2,17.12,0,6.15,3.82,5.65,6.15-3.15,6-1.66,6,2.16.16,3.66-1.5a20,20,0,0,0,4-9.14c.33-3.16-1.66-6.49-.66-9.48s2.49-9.81,2.32-12.47-.47-3.66,0-5.82,1.81-11.81,1-14.63-3.32-7-8.81-9.81a49.43,49.43,0,0,0-22.61-6.15c-9.81-.17-20.29,4-24.11,7s-6.82,6.32-7.82,7.15-10.31,11.8-10.47,14.3,1,10.31-.83,12-2.5,3.16-1.83,4.82,2.16,3.33,1.83,4.82-2.33,9.48,0,14.8a15.68,15.68,0,0,0,6,7.32"
          style="fill:none;stroke:#fff;stroke-miterlimit:10;stroke-width:2px"
        />
        <path
          d="M871.21,243.42c-7.43,2.4-15.57-2.21-18.18-10.29s1.29-16.58,8.72-19,15.57,2.2,18.18,10.29c2.15,6.66-.13,13.61-5.16,17.19"
          style="fill:none;stroke:#fff;stroke-miterlimit:10;stroke-width:2px"
        />
        <path
          d="M882.94,285.9c1.67,1.66,8.65,5.49,11.14,5.49s7-3.16,9-2.75,7.15-1.25,7.48,0,3,4.91,5.66,4.74,4.82,1.16,7,2.33,7.48-1.5,7.81-2.33"
          style="fill:none;stroke:#fff;stroke-miterlimit:10;stroke-width:2px"
        />
        <path
          d="M883.77,268.44c3,1.83,5,4.16,6.49,3.49s1.16-2.21,4.32-1.69,5.65,3.59,6.65,1.81,4.66-3.44,7.65-2.61a19.94,19.94,0,0,0,6.15,1.08c2.5.08,3.66-4.57,4.49-5.57a2.16,2.16,0,0,0,0-3.16c-1-1.16-.16-4.66,2.16-4.32s8,2.32,11.14,2.16"
          style="fill:none;stroke:#fff;stroke-miterlimit:10;stroke-width:2px"
        />
        <path
          d="M1062.18,503.21s10.64-.33,11.64-1.66-2.33-5-2.33-6.84,2.33-1.8,4-2.14,4-12.63,1.67-12.3-1,3-5.32,2a28,28,0,0,0-9.65,0"
          style="fill:none;stroke:#fff;stroke-miterlimit:10;stroke-width:2px"
        />
      </g>
    </g>
  </g>
</svg>
