<svg id="Layer_1" data-name="Layer 1" xmlns="http://www.w3.org/2000/svg" viewBox="0 0 1280 720">
  <title>svg-hl4</title>
  <g style="isolation:isolate">
    <text
      transform="translate(146.52 351.03)"
      style="isolation:isolate;font-size:36.85981369018555px;fill:#fff;font-family:Montserrat-Medium, Montserrat;font-weight:500;letter-spacing:-0.010001470621870207em"
    >
      W
    </text>
    <text
      transform="translate(187.66 351.03)"
      style="isolation:isolate;font-size:36.85981369018555px;fill:#fff;font-family:Montserrat-Medium, Montserrat;font-weight:500;letter-spacing:-0.007007652925787204em"
    >
      h
    </text>
    <text
      transform="translate(212.5 351.03)"
      style="font-size:36.85981369018555px;fill:#fff;font-family:Montserrat-Medium, Montserrat;font-weight:500;letter-spacing:-0.010001470621870207em"
    ></text>
    <text
      transform="translate(212.5 351.03)"
      style="isolation:isolate;font-size:36.85981369018555px;fill:#fff;font-family:Montserrat-Medium, Montserrat;font-weight:500;letter-spacing:-0.008994700069205126em"
    >
      en people h
    </text>
    <text
      transform="translate(430.12 351.03)"
      style="font-size:36.85981369018555px;fill:#fff;font-family:Montserrat-Medium, Montserrat;font-weight:500;letter-spacing:-0.010001470621870207em"
    ></text>
    <text
      transform="translate(430.12 351.03)"
      style="isolation:isolate;font-size:36.85981369018555px;fill:#fff;font-family:Montserrat-Medium, Montserrat;font-weight:500;letter-spacing:-0.019009417672031452em"
    >
      a
    </text>
    <text
      transform="translate(451.42 351.03)"
      style="font-size:36.85981369018555px;fill:#fff;font-family:Montserrat-Medium, Montserrat;font-weight:500;letter-spacing:-0.010001470621870207em"
    ></text>
    <text
      transform="translate(451.42 351.03)"
      style="isolation:isolate;font-size:36.85981369018555px;fill:#fff;font-family:Montserrat-Medium, Montserrat;font-weight:500;letter-spacing:-0.025010300045153578em"
    >
      v
    </text>
    <text
      transform="translate(471.11 351.03)"
      style="font-size:36.85981369018555px;fill:#fff;font-family:Montserrat-Medium, Montserrat;font-weight:500;letter-spacing:-0.010001470621870207em"
    ></text>
    <text
      transform="translate(471.11 351.03)"
      style="isolation:isolate;font-size:36.85981369018555px;fill:#fff;font-family:Montserrat-Medium, Montserrat;font-weight:500;letter-spacing:-0.010001470621870207em"
    >
      e t
    </text>
    <text
      transform="translate(517.73 351.03)"
      style="font-size:36.85981369018555px;fill:#fff;font-family:Montserrat-Medium, Montserrat;font-weight:500;letter-spacing:-0.010001470621870207em"
    ></text>
    <text
      transform="translate(517.73 351.03)"
      style="isolation:isolate;font-size:36.85981369018555px;fill:#fff;font-family:Montserrat-Medium, Montserrat;font-weight:500;letter-spacing:-0.007007652925787204em"
    >
      h
    </text>
    <text
      transform="translate(542.57 351.03)"
      style="font-size:36.85981369018555px;fill:#fff;font-family:Montserrat-Medium, Montserrat;font-weight:500;letter-spacing:-0.010001470621870207em"
    ></text>
    <text
      transform="translate(542.57 351.03)"
      style="isolation:isolate;font-size:36.85981369018555px;fill:#fff;font-family:Montserrat-Medium, Montserrat;font-weight:500;letter-spacing:-0.010001470621870207em"
    >
      e
    </text>
    <text
      transform="translate(564.76 351.03)"
      style="font-size:36.85981369018555px;fill:#fff;font-family:Montserrat-Medium, Montserrat;font-weight:500;letter-spacing:-0.010001470621870207em"
    ></text>
    <text
      transform="translate(574.31 351.03)"
      style="isolation:isolate;font-size:36.85981369018555px;fill:#fff;font-family:Montserrat-Medium, Montserrat;font-weight:500;letter-spacing:-0.01600235299499233em"
    >
      c
    </text>
    <text
      transform="translate(594.74 351.03)"
      style="font-size:36.85981369018555px;fill:#fff;font-family:Montserrat-Medium, Montserrat;font-weight:500;letter-spacing:-0.010001470621870207em"
    ></text>
    <text
      transform="translate(594.74 351.03)"
      style="isolation:isolate;font-size:36.85981369018555px;fill:#fff;font-family:Montserrat-Medium, Montserrat;font-weight:500;letter-spacing:-0.008994700069205126em"
    >
      ha
    </text>
    <text
      transform="translate(641.14 351.03)"
      style="font-size:36.85981369018555px;fill:#fff;font-family:Montserrat-Medium, Montserrat;font-weight:500;letter-spacing:-0.009988223640914087em"
    ></text>
    <text
      transform="translate(641.14 351.03)"
      style="isolation:isolate;font-size:36.85981369018555px;fill:#fff;font-family:Montserrat-Medium, Montserrat;font-weight:500;letter-spacing:-0.006994405944831085em"
    >
      n
    </text>
    <text
      transform="translate(665.98 351.03)"
      style="font-size:36.85981369018555px;fill:#fff;font-family:Montserrat-Medium, Montserrat;font-weight:500;letter-spacing:-0.009988223640914087em"
    ></text>
    <text
      transform="translate(665.98 351.03)"
      style="isolation:isolate;font-size:36.85981369018555px;fill:#fff;font-family:Montserrat-Medium, Montserrat;font-weight:500;letter-spacing:-0.01700912354765741em"
    >
      c
    </text>
    <text
      transform="translate(686.37 351.03)"
      style="font-size:36.85981369018555px;fill:#fff;font-family:Montserrat-Medium, Montserrat;font-weight:500;letter-spacing:-0.009988223640914087em"
    ></text>
    <text
      transform="translate(686.37 351.03)"
      style="isolation:isolate;font-size:36.85981369018555px;fill:#fff;font-family:Montserrat-Medium, Montserrat;font-weight:500;letter-spacing:-0.010014717602826326em"
    >
      e
    </text>
    <text
      transform="translate(708.56 351.03)"
      style="font-size:36.85981369018555px;fill:#fff;font-family:Montserrat-Medium, Montserrat;font-weight:500;letter-spacing:-0.009988223640914087em"
    ></text>
    <text
      transform="translate(718.1 351.03)"
      style="isolation:isolate;font-size:36.85981369018555px;fill:#fff;font-family:Montserrat-Medium, Montserrat;font-weight:500;letter-spacing:-0.026997347188571497em"
    >
      t
    </text>
    <text
      transform="translate(732.33 351.03)"
      style="font-size:36.85981369018555px;fill:#fff;font-family:Montserrat-Medium, Montserrat;font-weight:500;letter-spacing:-0.009988223640914087em"
    ></text>
    <text
      transform="translate(732.33 351.03)"
      style="isolation:isolate;font-size:36.85981369018555px;fill:#fff;font-family:Montserrat-Medium, Montserrat;font-weight:500;letter-spacing:-0.010014717602826326em"
    >
      o
    </text>
    <text
      transform="translate(755.37 351.03)"
      style="font-size:36.85981369018555px;fill:#fff;font-family:Montserrat-Medium, Montserrat;font-weight:500;letter-spacing:-0.009988223640914087em"
    ></text>
    <text
      transform="translate(146.52 404.74)"
      style="isolation:isolate;font-size:36.85981369018555px;fill:#fff;font-family:Montserrat-Medium, Montserrat;font-weight:500;letter-spacing:-0.010001470621870207em"
    >
      imp
    </text>
    <text
      transform="translate(219.8 404.74)"
      style="font-size:36.85981369018555px;fill:#fff;font-family:Montserrat-Medium, Montserrat;font-weight:500;letter-spacing:-0.010001470621870207em"
    ></text>
    <text
      transform="translate(219.8 404.74)"
      style="isolation:isolate;font-size:36.85981369018555px;fill:#fff;font-family:Montserrat-Medium, Montserrat;font-weight:500;letter-spacing:-0.022003235368114455em"
    >
      r
    </text>
    <text
      transform="translate(234.1 404.74)"
      style="font-size:36.85981369018555px;fill:#fff;font-family:Montserrat-Medium, Montserrat;font-weight:500;letter-spacing:-0.010001470621870207em"
    ></text>
    <text
      transform="translate(234.1 404.74)"
      style="isolation:isolate;font-size:36.85981369018555px;fill:#fff;font-family:Montserrat-Medium, Montserrat;font-weight:500;letter-spacing:-0.03999263550652471em"
    >
      o
      <tspan x="21.93" y="0" style="letter-spacing:-0.025010300045153578em">v</tspan>
    </text>
    <text
      transform="translate(275.71 404.74)"
      style="font-size:36.85981369018555px;fill:#fff;font-family:Montserrat-Medium, Montserrat;font-weight:500;letter-spacing:-0.010001470621870207em"
    ></text>
    <text
      transform="translate(276.27 404.74)"
      style="isolation:isolate;font-size:36.85981369018555px;fill:#fff;font-family:Montserrat-Medium, Montserrat;font-weight:500;letter-spacing:-0.010001470621870207em"
    >
      e t
    </text>
    <text
      transform="translate(322.89 404.74)"
      style="font-size:36.85981369018555px;fill:#fff;font-family:Montserrat-Medium, Montserrat;font-weight:500;letter-spacing:-0.010001470621870207em"
    ></text>
    <text
      transform="translate(322.89 404.74)"
      style="isolation:isolate;font-size:36.85981369018555px;fill:#fff;font-family:Montserrat-Medium, Montserrat;font-weight:500;letter-spacing:-0.007007652925787204em"
    >
      h
    </text>
    <text
      transform="translate(347.73 404.74)"
      style="font-size:36.85981369018555px;fill:#fff;font-family:Montserrat-Medium, Montserrat;font-weight:500;letter-spacing:-0.010001470621870207em"
    ></text>
    <text
      transform="translate(347.73 404.74)"
      style="isolation:isolate;font-size:36.85981369018555px;fill:#fff;font-family:Montserrat-Medium, Montserrat;font-weight:500;letter-spacing:-0.010001470621870207em"
    >
      eir li
    </text>
    <text
      transform="translate(423.96 404.74)"
      style="font-size:36.85981369018555px;fill:#fff;font-family:Montserrat-Medium, Montserrat;font-weight:500;letter-spacing:-0.010001470621870207em"
    ></text>
    <text
      transform="translate(423.96 404.74)"
      style="isolation:isolate;font-size:36.85981369018555px;fill:#fff;font-family:Montserrat-Medium, Montserrat;font-weight:500;letter-spacing:-0.025010300045153578em"
    >
      v
    </text>
    <text
      transform="translate(443.64 404.74)"
      style="font-size:36.85981369018555px;fill:#fff;font-family:Montserrat-Medium, Montserrat;font-weight:500;letter-spacing:-0.010001470621870207em"
    ></text>
    <text
      transform="translate(443.64 404.74)"
      style="isolation:isolate;font-size:36.85981369018555px;fill:#fff;font-family:Montserrat-Medium, Montserrat;font-weight:500;letter-spacing:-0.008994700069205126em"
    >
      es a
    </text>
    <text
      transform="translate(515.15 404.74)"
      style="font-size:36.85981369018555px;fill:#fff;font-family:Montserrat-Medium, Montserrat;font-weight:500;letter-spacing:-0.010001470621870207em"
    ></text>
    <text
      transform="translate(515.15 404.74)"
      style="isolation:isolate;font-size:36.85981369018555px;fill:#fff;font-family:Montserrat-Medium, Montserrat;font-weight:500;letter-spacing:-0.007007652925787204em"
    >
      n
    </text>
    <text
      transform="translate(539.99 404.74)"
      style="font-size:36.85981369018555px;fill:#fff;font-family:Montserrat-Medium, Montserrat;font-weight:500;letter-spacing:-0.010001470621870207em"
    ></text>
    <text
      transform="translate(539.99 404.74)"
      style="isolation:isolate;font-size:36.85981369018555px;fill:#fff;font-family:Montserrat-Medium, Montserrat;font-weight:500;letter-spacing:-0.009007947050161245em"
    >
      d build t
    </text>
    <text
      transform="translate(692.71 404.74)"
      style="font-size:36.85981369018555px;fill:#fff;font-family:Montserrat-Medium, Montserrat;font-weight:500;letter-spacing:-0.009988223640914087em"
    ></text>
    <text
      transform="translate(692.7 404.74)"
      style="isolation:isolate;font-size:36.85981369018555px;fill:#fff;font-family:Montserrat-Medium, Montserrat;font-weight:500;letter-spacing:-0.006994405944831085em"
    >
      h
    </text>
    <text
      transform="translate(717.54 404.74)"
      style="font-size:36.85981369018555px;fill:#fff;font-family:Montserrat-Medium, Montserrat;font-weight:500;letter-spacing:-0.009988223640914087em"
    ></text>
    <text
      transform="translate(717.54 404.74)"
      style="isolation:isolate;font-size:36.85981369018555px;fill:#fff;font-family:Montserrat-Medium, Montserrat;font-weight:500;letter-spacing:-0.009007947050161245em"
    >
      eir
    </text>
    <text
      transform="translate(764.39 404.74)"
      style="font-size:36.85981369018555px;fill:#fff;font-family:Montserrat-Medium, Montserrat;font-weight:500;letter-spacing:-0.009988223640914087em"
    ></text>
    <text
      transform="translate(146.52 458.45)"
      style="isolation:isolate;font-size:36.85981369018555px;fill:#fff;font-family:Montserrat-Medium, Montserrat;font-weight:500;letter-spacing:-0.01699587656670129em"
    >
      c
    </text>
    <text
      transform="translate(166.9 458.45)"
      style="font-size:36.85981369018555px;fill:#fff;font-family:Montserrat-Medium, Montserrat;font-weight:500;letter-spacing:-0.01699587656670129em"
    ></text>
    <text
      transform="translate(166.9 458.45)"
      style="isolation:isolate;font-size:36.85981369018555px;fill:#fff;font-family:Montserrat-Medium, Montserrat;font-weight:500;letter-spacing:-0.010001470621870207em"
    >
      ommunities, t
    </text>
    <text
      transform="translate(423.88 458.45)"
      style="font-size:36.85981369018555px;fill:#fff;font-family:Montserrat-Medium, Montserrat;font-weight:500;letter-spacing:-0.01699587656670129em"
    ></text>
    <text
      transform="translate(423.88 458.45)"
      style="isolation:isolate;font-size:36.85981369018555px;fill:#fff;font-family:Montserrat-Medium, Montserrat;font-weight:500;letter-spacing:-0.007007652925787204em"
    >
      h
    </text>
    <text
      transform="translate(448.73 458.45)"
      style="font-size:36.85981369018555px;fill:#fff;font-family:Montserrat-Medium, Montserrat;font-weight:500;letter-spacing:-0.01699587656670129em"
    ></text>
    <text
      transform="translate(448.73 458.45)"
      style="isolation:isolate;font-size:36.85981369018555px;fill:#fff;font-family:Montserrat-Medium, Montserrat;font-weight:500;letter-spacing:-0.018996170691075332em"
    >
      e
    </text>
    <text
      transform="translate(470.55 458.45)"
      style="font-size:36.85981369018555px;fill:#fff;font-family:Montserrat-Medium, Montserrat;font-weight:500;letter-spacing:-0.01699587656670129em"
    ></text>
    <text
      transform="translate(470.55 458.45)"
      style="isolation:isolate;font-size:36.85981369018555px;fill:#fff;font-family:Montserrat-Medium, Montserrat;font-weight:500;letter-spacing:-0.010001470621870207em"
    >
      y will sei
    </text>
    <text
      transform="translate(622.59 458.45)"
      style="font-size:36.85981369018555px;fill:#fff;font-family:Montserrat-Medium, Montserrat;font-weight:500;letter-spacing:-0.01699587656670129em"
    ></text>
    <text
      transform="translate(622.59 458.45)"
      style="isolation:isolate;font-size:36.85981369018555px;fill:#fff;font-family:Montserrat-Medium, Montserrat;font-weight:500;letter-spacing:-0.016982629585745174em"
    >
      z
    </text>
    <text
      transform="translate(641.13 458.45)"
      style="font-size:36.85981369018555px;fill:#fff;font-family:Montserrat-Medium, Montserrat;font-weight:500;letter-spacing:-0.01700912354765741em"
    ></text>
    <text
      transform="translate(641.14 458.45)"
      style="isolation:isolate;font-size:36.85981369018555px;fill:#fff;font-family:Montserrat-Medium, Montserrat;font-weight:500;letter-spacing:-0.009007947050161245em"
    >
      e t
    </text>
    <text
      transform="translate(687.77 458.45)"
      style="font-size:36.85981369018555px;fill:#fff;font-family:Montserrat-Medium, Montserrat;font-weight:500;letter-spacing:-0.01700912354765741em"
    ></text>
    <text
      transform="translate(687.76 458.45)"
      style="isolation:isolate;font-size:36.85981369018555px;fill:#fff;font-family:Montserrat-Medium, Montserrat;font-weight:500;letter-spacing:-0.006994405944831085em"
    >
      h
    </text>
    <text
      transform="translate(712.6 458.45)"
      style="font-size:36.85981369018555px;fill:#fff;font-family:Montserrat-Medium, Montserrat;font-weight:500;letter-spacing:-0.01700912354765741em"
    ></text>
    <text
      transform="translate(712.6 458.45)"
      style="isolation:isolate;font-size:36.85981369018555px;fill:#fff;font-family:Montserrat-Medium, Montserrat;font-weight:500;letter-spacing:-0.010014717602826326em"
    >
      e
    </text>
    <text
      transform="translate(734.79 458.45)"
      style="font-size:36.85981369018555px;fill:#fff;font-family:Montserrat-Medium, Montserrat;font-weight:500;letter-spacing:-0.01700912354765741em"
    ></text>
    <text
      transform="translate(146.52 512.16)"
      style="isolation:isolate;font-size:36.85981369018555px;fill:#fff;font-family:Montserrat-Medium, Montserrat;font-weight:500;letter-spacing:-0.010001470621870207em"
    >
      oppo
    </text>
    <text
      transform="translate(242.13 512.16)"
      style="font-size:36.85981369018555px;fill:#fff;font-family:Montserrat-Medium, Montserrat;font-weight:500;letter-spacing:-0.010001470621870207em"
    ></text>
    <text
      transform="translate(242.13 512.16)"
      style="isolation:isolate;font-size:36.85981369018555px;fill:#fff;font-family:Montserrat-Medium, Montserrat;font-weight:500;letter-spacing:0.004000588248748082em"
    >
      r
    </text>
    <text
      transform="translate(257.43 512.16)"
      style="font-size:36.85981369018555px;fill:#fff;font-family:Montserrat-Medium, Montserrat;font-weight:500;letter-spacing:-0.010001470621870207em"
    ></text>
    <text
      transform="translate(257.43 512.16)"
      style="isolation:isolate;font-size:36.85981369018555px;fill:#fff;font-family:Montserrat-Medium, Montserrat;font-weight:500;letter-spacing:-0.010001470621870207em"
    >
      tuni
    </text>
    <text
      transform="translate(331.55 512.16)"
      style="font-size:36.85981369018555px;fill:#fff;font-family:Montserrat-Medium, Montserrat;font-weight:500;letter-spacing:-0.010001470621870207em"
    ></text>
    <text
      transform="translate(331.56 512.16)"
      style="isolation:isolate;font-size:36.85981369018555px;fill:#fff;font-family:Montserrat-Medium, Montserrat;font-weight:500;letter-spacing:-0.018996170691075332em"
    >
      t
    </text>
    <text
      transform="translate(346.08 512.16)"
      style="font-size:36.85981369018555px;fill:#fff;font-family:Montserrat-Medium, Montserrat;font-weight:500;letter-spacing:-0.010001470621870207em"
    ></text>
    <text
      transform="translate(346.08 512.16)"
      style="isolation:isolate;font-size:36.85981369018555px;fill:#fff;font-family:Montserrat-Medium, Montserrat;font-weight:500;letter-spacing:-0.010001470621870207em"
    >
      y a
    </text>
    <text
      transform="translate(397.53 512.16)"
      style="font-size:36.85981369018555px;fill:#fff;font-family:Montserrat-Medium, Montserrat;font-weight:500;letter-spacing:-0.010001470621870207em"
    ></text>
    <text
      transform="translate(397.54 512.16)"
      style="isolation:isolate;font-size:36.85981369018555px;fill:#fff;font-family:Montserrat-Medium, Montserrat;font-weight:500;letter-spacing:-0.007007652925787204em"
    >
      n
    </text>
    <text
      transform="translate(422.38 512.16)"
      style="font-size:36.85981369018555px;fill:#fff;font-family:Montserrat-Medium, Montserrat;font-weight:500;letter-spacing:-0.010001470621870207em"
    ></text>
    <text
      transform="translate(422.38 512.16)"
      style="isolation:isolate;font-size:36.85981369018555px;fill:#fff;font-family:Montserrat-Medium, Montserrat;font-weight:500;letter-spacing:-0.010001470621870207em"
    >
      d
    </text>
    <text
      transform="translate(447.15 512.16)"
      style="font-size:36.85981369018555px;fill:#fff;font-family:Montserrat-Medium, Montserrat;font-weight:500;letter-spacing:-0.010001470621870207em"
    ></text>
    <text
      transform="translate(456.69 512.16)"
      style="isolation:isolate;font-size:36.85981369018555px;fill:#fff;font-family:Montserrat-Medium, Montserrat;font-weight:500;letter-spacing:-0.01699587656670129em"
    >
      c
    </text>
    <text
      transform="translate(477.07 512.16)"
      style="font-size:36.85981369018555px;fill:#fff;font-family:Montserrat-Medium, Montserrat;font-weight:500;letter-spacing:-0.010001470621870207em"
    ></text>
    <text
      transform="translate(477.08 512.16)"
      style="isolation:isolate;font-size:36.85981369018555px;fill:#fff;font-family:Montserrat-Medium, Montserrat;font-weight:500;letter-spacing:-0.008994700069205126em"
    >
      ont
    </text>
    <text
      transform="translate(539.74 512.16)"
      style="font-size:36.85981369018555px;fill:#fff;font-family:Montserrat-Medium, Montserrat;font-weight:500;letter-spacing:-0.010001470621870207em"
    ></text>
    <text
      transform="translate(539.73 512.16)"
      style="isolation:isolate;font-size:36.85981369018555px;fill:#fff;font-family:Montserrat-Medium, Montserrat;font-weight:500;letter-spacing:-0.01600235299499233em"
    >
      r
    </text>
    <text
      transform="translate(554.22 512.16)"
      style="font-size:36.85981369018555px;fill:#fff;font-family:Montserrat-Medium, Montserrat;font-weight:500;letter-spacing:-0.010001470621870207em"
    ></text>
    <text
      transform="translate(554.22 512.16)"
      style="isolation:isolate;font-size:36.85981369018555px;fill:#fff;font-family:Montserrat-Medium, Montserrat;font-weight:500;letter-spacing:-0.010001470621870207em"
    >
      ibu
    </text>
    <text
      transform="translate(613.49 512.16)"
      style="font-size:36.85981369018555px;fill:#fff;font-family:Montserrat-Medium, Montserrat;font-weight:500;letter-spacing:-0.010001470621870207em"
    ></text>
    <text
      transform="translate(613.49 512.16)"
      style="isolation:isolate;font-size:36.85981369018555px;fill:#fff;font-family:Montserrat-Medium, Montserrat;font-weight:500;letter-spacing:-0.026997347188571497em"
    >
      t
    </text>
    <text
      transform="translate(627.72 512.16)"
      style="font-size:36.85981369018555px;fill:#fff;font-family:Montserrat-Medium, Montserrat;font-weight:500;letter-spacing:-0.010001470621870207em"
    ></text>
    <text
      transform="translate(627.72 512.16)"
      style="isolation:isolate;font-size:36.85981369018555px;fill:#fff;font-family:Montserrat-Medium, Montserrat;font-weight:500;letter-spacing:-0.009988223640914087em"
    >
      e
    </text>
    <text
      transform="translate(649.91 512.16)"
      style="font-size:36.85981369018555px;fill:#fff;font-family:Montserrat-Medium, Montserrat;font-weight:500;letter-spacing:-0.009988223640914087em"
    ></text>
    <text
      transform="translate(659.45 512.16)"
      style="isolation:isolate;font-size:36.85981369018555px;fill:#fff;font-family:Montserrat-Medium, Montserrat;font-weight:500;letter-spacing:-0.026997347188571497em"
    >
      t
    </text>
    <text
      transform="translate(673.68 512.16)"
      style="font-size:36.85981369018555px;fill:#fff;font-family:Montserrat-Medium, Montserrat;font-weight:500;letter-spacing:-0.009988223640914087em"
    ></text>
    <text
      transform="translate(673.68 512.16)"
      style="isolation:isolate;font-size:36.85981369018555px;fill:#fff;font-family:Montserrat-Medium, Montserrat;font-weight:500;letter-spacing:-0.010014717602826326em"
    >
      o a
    </text>
    <text
      transform="translate(727.94 512.16)"
      style="font-size:36.85981369018555px;fill:#fff;font-family:Montserrat-Medium, Montserrat;font-weight:500;letter-spacing:-0.009988223640914087em"
    ></text>
    <text
      transform="translate(146.52 565.87)"
      style="isolation:isolate;font-size:36.85981369018555px;fill:#fff;font-family:Montserrat-Bold, Montserrat;font-weight:700;letter-spacing:-0.010001470621870207em"
    >
      BE
    </text>
    <text
      transform="translate(198.71 565.87)"
      style="font-size:36.85981369018555px;fill:#fff;font-family:Montserrat-Bold, Montserrat;font-weight:700"
    ></text>
    <text
      transform="translate(198.71 565.87)"
      style="isolation:isolate;font-size:36.85981369018555px;fill:#fff;font-family:Montserrat-Bold, Montserrat;font-weight:700"
    >
      T
    </text>
    <text
      transform="translate(221.49 565.87)"
      style="font-size:36.85981369018555px;fill:#fff;font-family:Montserrat-Bold, Montserrat;font-weight:700"
    ></text>
    <text
      transform="translate(221.49 565.87)"
      style="isolation:isolate;font-size:36.85981369018555px;fill:#fff;font-family:Montserrat-Bold, Montserrat;font-weight:700;letter-spacing:-0.010001470621870207em"
    >
      TER F
    </text>
    <text
      transform="translate(328.24 565.87)"
      style="font-size:36.85981369018555px;fill:#fff;font-family:Montserrat-Bold, Montserrat;font-weight:700"
    ></text>
    <text
      transform="translate(328.24 565.87)"
      style="isolation:isolate;font-size:36.85981369018555px;fill:#fff;font-family:Montserrat-Bold, Montserrat;font-weight:700;letter-spacing:-0.03299822956169362em"
    >
      U
      <tspan x="27.83" y="0" style="letter-spacing:-0.020996464815449374em">T</tspan>
    </text>
    <text
      transform="translate(378 565.87)"
      style="font-size:36.85981369018555px;fill:#fff;font-family:Montserrat-Bold, Montserrat;font-weight:700"
    ></text>
    <text
      transform="translate(378.44 565.87)"
      style="isolation:isolate;font-size:36.85981369018555px;fill:#fff;font-family:Montserrat-Bold, Montserrat;font-weight:700;letter-spacing:-0.010001470621870207em"
    >
      URE
    </text>
    <text
      transform="translate(458.21 565.87)"
      style="font-size:36.85981369018555px;fill:#fff;font-family:Montserrat-Bold, Montserrat;font-weight:700"
    ></text>
    <text
      transform="translate(467.75 565.87)"
      style="isolation:isolate;font-size:36.85981369018555px;fill:#fff;font-family:Montserrat-Medium, Montserrat;font-weight:500;letter-spacing:-0.01699587656670129em"
    >
      f
    </text>
    <text
      transform="translate(480.1 565.87)"
      style="isolation:isolate;font-size:36.85981369018555px;fill:#fff;font-family:Montserrat-Medium, Montserrat;font-weight:500;letter-spacing:-0.008994700069205126em"
    >
      or all of us.
    </text>
  </g>
  <g id="road">
    <path
      d="M204.31,248.62c38.88,0,29.42-32.09,83-41.55,11.38-2,23.11,8.43,23.11,0s-10.53-15.79,0-16.85,12.64,0,23.12,0,18.95-9.33,21-.46,15.79,7.83,21.06,7.83,5.26,3.16,11.58,4.21,6.32,1,11.59-2.11a40.32,40.32,0,0,1,20-5.26c7.37,0,8.42,4.21,17.9,3.16s13.69,11.11,17.9,8.71,0-14,11.59-16.08,25.22,0,31.52,3.16,11.58,8,21,12.92,8.42,7.65,11.58,0,9.48-15,14.75-16.08,10.53-3.15,16.85,1.06,12.64,13.21,11.58,15-3.16,10.19,5.27,9.15,14.74,4.21,20,1.05,7.38-5.27,13.7-5.27-4.22-4.21,6.31,0,.29,9.48,17,5.27,17.71-13.05,20.86-10.19,12.64-1.8,19,0,21,5.55,25.21,0,16.85-14,22.12-16.07,22.11-8.43,28.37-11.59,17.9-13.69,23.11-10.53,21.07,8.42,25.22,13.69,23.11,6.42,26.26,15.29,7.37,11,11.59,11,12.63-4.22,20-5.27,9.67-7.24,23.17-5.72,28.17,9.23,29.13,9.75"
      style="fill:none;stroke:#fff;stroke-miterlimit:10;stroke-width:2.106275071528856px;opacity:0.699999988079071;isolation:isolate"
    />
    <polyline
      points="3.33 265.99 773.76 231.24 961.14 251.98"
      style="fill:none;stroke:#fff;stroke-miterlimit:10;stroke-width:2.106275071528856px;opacity:0.699999988079071;isolation:isolate"
    />
  </g>
  <g id="motorcyle" style="opacity:0.699999988079071">
    <path
      d="M1267.1,140.88c-4.21,0-47.06-.92-51.15-2.21s-1.23-4.49-5-6-61.08-14.29-104.55-7.78c0,0-13,1.61-16.85,5.47,0,0-47.63-3.16-49.38-2.46s-33.61,9.48-33.61,9.48a71.8,71.8,0,0,0-6,26.61c-.35,13.31-11.21,108.57-11.21,111.37s30.12,17.52,33.63,17.52,222.38,8,222.38,8a67.62,67.62,0,0,1,1-8.75c1-7.06,15.63-134.14,18.09-135.42"
      style="fill:none;stroke:#fff;stroke-miterlimit:10;stroke-width:2.106275071528856px"
    />
    <path
      d="M1006.29,123.09c-5.6-1.11-16.85,0-20,7.12-1.54,3.46-14.74,9.63-17.9,11s-17.52,21.36-20.32,23.11-2.83,8.06-9.12,9.11-13.15,13.31-15.26,14.71-4.89,12.64-6.64,13-5.27,2.46-5.62,4.55.36,5-1.74,6.32a7.88,7.88,0,0,0-3.86,5.92c-.35,2.8-3.5,4.56,0,6.32s-.35,3.85,4.56,3.85,6,0,7.7-1.05,2.45,2.11,5.27.7,7.37-1.75,8.42-2.8,3.86,1.4,4.21-2.81-2.1-4.89-2.45-6.31-4.21-4.91-4.21-6.66,1.4-2.8,3.16-3.16,8-2.45,11.2-5.27,7.7-5.26,10.86-8.05,4.9-4.21,7.7-5.27,5.6-1.4,9.11-3.49,2.8-.71,8-4.22,6.32-6.65,7.38-3.85,3.85,6.65,2.8,14.74,1.75,32.91,0,37.47S985,244.51,985,249.12s3.85,8.75.35,11.91a85.75,85.75,0,0,1-12.26,9.1c-3.16,1.74-16.46,9.11-19.27,11.91s-9.09,10.53-10.53,11.58-7,2.8-8.42,7.37-4.56,6.32-4.56,8.05,4.21,3.51,3.51,7-.71,7,0,12.25,4.21,14.75,2.8,17.52-.71,27-1.06,28.71,11.59,3.16,11.59,5.27-3.5,7.37-1.06,9.8,2.45,9.81,2.45,10.86-.7,7-.7,7c-3.16,3.49-9.11,7-8.75,10.53s1.75,12.26,8.75,11.91,6.32,1.75,11.59,3.16,15.06,3.85,17.9,1.4,3.86-18.56,1.4-20.31-6-9.11-6-13.69-3.16-17.16-2.8-19.26,7.3-7,10.13-6.65,8.08-1.75,5.27-9.11-9.81-18.56-10.53-24.16-.35-8.06,3.5-8.43,7.71-7.71,11.21-7,8,2.44,11.2-4.21,16-26.33,17.52-28"
      style="fill:none;stroke:#fff;stroke-miterlimit:10;stroke-width:2.106275071528856px"
    />
    <path
      d="M1104.87,122c-3.84-4.7-15.93-4.56-19.08-4.91s-10.15-.34-12.64-1.74"
      style="fill:none;stroke:#fff;stroke-miterlimit:10;stroke-width:2.106275071528856px"
    />
    <path
      d="M1081.59,315c-6.32-.69-35.38-1.85-59.53,2.51-13,2.32-26.63,14.93-32.58,27.25-1.21,2.51-3.16,9.74-3.16,12.55s8.06,6.31,8.06,6.31c8.42,5.27,9.84,1.19,10.91-5.26,3.44-20.66,28.31-38.53,43.72-39.93,13.6-1.23,29.42-2.1,41,0s41,14.37,48.33,37.83c1.6,5.11,7.37,15.8,0,15.8,0,0-7.58-1.17-7.58.71s1.86,38.28,1.86,38.28-.68,4.21-4.31,3.74a51,51,0,0,0-9.08,0"
      style="fill:none;stroke:#fff;stroke-linecap:round;stroke-miterlimit:10;stroke-width:2.106275071528856px"
    />
    <path
      d="M1007.31,406.64c2.69-2.4,7.86-6.67,10.19-6.31,4.09.68,36.23,13.69,36.23,16.41s-11.58,0-15,4.1-2.63,4.11-9.18,2.74-5.87,7.52-8.61,7.52-2.73,5.47-2,7.53,17.1,17.09,17.1,17.09l-1.37,16.41s-6.15,1.37-8.21,0,2.86,8.19,3.16,14,3.82,16.76,0,14.74-10.65-21.2-14.08-26.68-2.1-14.35-4.79-17.77-12.3-24.63-12.3-24.63-.45-23.25,7-23.25"
      style="fill:none;stroke:#fff;stroke-miterlimit:10;stroke-width:2.106275071528856px"
    />
    <path
      d="M1029.34,397.82c5.44-15.55,12.8-25.09,20.91-25.09,16.72,0,30.29,40.69,30.29,90.88s-13.57,90.88-30.29,90.88c-12.3,0-22.89-22-27.64-53.55"
      style="fill:none;stroke:#fff;stroke-linecap:round;stroke-miterlimit:10;stroke-width:2.106275071528856px"
    />
    <path
      d="M1056.38,368.17h36.07s29.06,16.85,26.61,99.47c0,0-4.21,89-27.67,89h-33.26"
      style="fill:none;stroke:#fff;stroke-linecap:round;stroke-miterlimit:10;stroke-width:2.106275071528856px"
    />
    <path
      d="M943.26,434.36c.93,2.11,4.67,4.22,7.24,4.68s4.89,1.63,5.37,3.5,1.86,6.31-1.4,6.31-5.14,1.64-4.56,3.5,3.15,6.54,6.65,7.25,14.51,1.87,16.62,0,2.34-5.85,3.74-6.54,7.71,2.57,9.48,2.33a10.13,10.13,0,0,0,5.26-3.27c1.17-1.4,2.11-3,5.13-3.27s-1.86-11.69-1.86-13.43"
      style="fill:none;stroke:#fff;stroke-miterlimit:10;stroke-width:2.106275071528856px"
    />
    <path
      d="M1148,370.9s20.55.47,20.08-19.15S1148,333.5,1148,333.5s-2.26-5.14-6-5.14-10.78,2.82-11.71,0,.47-5.6,2.33-7.46,23.81-4.21,26.62-4.21,4.67,4.21,11.2,2.8,20.55-6.54,24.75-11.21,18.22-3.74,18.22-3.74"
      style="fill:none;stroke:#fff;stroke-linecap:round;stroke-miterlimit:10;stroke-width:2.106275071528856px"
    />
    <line
      x1="1038.52"
      y1="133.88"
      x2="1022.61"
      y2="284.48"
      style="fill:none;stroke:#fff;stroke-linecap:round;stroke-miterlimit:10;stroke-width:2.106275071528856px"
    />
    <path
      d="M1009.62,119.53c3.67-.88,15.41-6.13,17.33-7.71s14.75-9.48,18.22-10.15,13.69-2.11,18,0,6.48,4,6,6.47-3.32,6.32-1.75,6.32,2.28.17,3.86-1.58a21.11,21.11,0,0,0,4.21-9.62c.35-3.33-1.75-6.84-.69-10s2.62-10.33,2.44-13.13-.5-3.85,0-6.13,1.91-12.44,1-15.41-3.49-7.37-9.28-10.33a52,52,0,0,0-23.81-6.47c-10.33-.18-21.37,4.21-25.39,7.37s-7.18,6.65-8.23,7.53-10.86,12.42-11,15.06,1.05,10.85-.87,12.63-2.64,3.33-1.93,5.08,2.27,3.51,1.93,5.08-2.46,10,0,15.58a16.5,16.5,0,0,0,6.31,7.71"
      style="fill:none;stroke:#fff;stroke-miterlimit:10;stroke-width:2.106275071528856px"
    />
    <path
      d="M920.74,182.83c-7.82,2.53-16.39-2.33-19.14-10.84s1.36-17.46,9.18-20,16.4,2.31,19.15,10.83c2.26,7-.14,14.34-5.44,18.11"
      style="fill:none;stroke:#fff;stroke-miterlimit:10;stroke-width:2.106275071528856px"
    />
    <path
      d="M933.1,227.57c1.76,1.75,9.11,5.78,11.73,5.78s7.37-3.33,9.48-2.9,7.53-1.31,7.88,0,3.15,5.18,6,5,5.07,1.22,7.37,2.45,7.88-1.58,8.22-2.45"
      style="fill:none;stroke:#fff;stroke-miterlimit:10;stroke-width:2.106275071528856px"
    />
    <path
      d="M934,209.18c3.16,1.93,5.27,4.38,6.84,3.68s1.22-2.33,4.55-1.78,5.95,3.78,7,1.9,4.91-3.62,8.06-2.75a21,21,0,0,0,6.47,1.14c2.64.09,3.86-4.81,4.73-5.86a2.28,2.28,0,0,0,.11-3.22.57.57,0,0,0-.11-.11c-1-1.22-.17-4.91,2.28-4.55s8.42,2.44,11.73,2.27"
      style="fill:none;stroke:#fff;stroke-miterlimit:10;stroke-width:2.106275071528856px"
    />
    <path
      d="M1121.86,456.43s11.21-.35,12.26-1.75-2.45-5.27-2.45-7.21,2.45-1.89,4.21-2.25,4.21-13.3,1.76-13-1.06,3.16-5.6,2.1a29.94,29.94,0,0,0-10.17,0"
      style="fill:none;stroke:#fff;stroke-miterlimit:10;stroke-width:2.106275071528856px"
    />
  </g>
</svg>
