<svg xmlns="http://www.w3.org/2000/svg" viewBox="0 0 113 50.29"><title>fhi-logo-tagline</title><path d="M53.9,5A4.47,4.47,0,0,1,45,5,4.47,4.47,0,0,1,53.9,5" style="fill:#f27321"/><path d="M38.42,10.35c-3.63,0-7.21,2.29-8.85,3.53V.8s-1.82,0-4-.14S20.16.09,19.38.06,17.6,0,16.74,0c-6.29,0-12,2.7-12,8.52v2.8H0v5H4.78v22h8v-22h5v-5h-5V10c0-2.65,1.64-3.76,5.55-3.76h1.06l1.89,0v32h8.3V19.05a14.36,14.36,0,0,1,6.07-1.49c2.78,0,3.62.65,3.62,4.37V38.29h8.26v-17c0-6.17-.6-10.89-9.1-10.89" style="fill:#231f20"/><path d="M59.82,38.29H51.56v-17c0-6,.38-10.64,8.26-10.88Z" style="fill:#706f73"/><path d="M76.68,23.82c2.12-1.23,3.15-3.2,3.15-6a7.1,7.1,0,0,0-7.49-7.5,7.23,7.23,0,0,0-7.64,6.93l0,.48h2.78l0-.39c.33-2.88,2.06-4.46,4.87-4.46S77,14.82,77,17.82c0,3.29-1.57,4.89-4.81,4.89h-.89v2.56h.89c3.64,0,5.34,1.66,5.34,5.23a4.94,4.94,0,0,1-5.2,5.23c-1.45,0-4.89-.45-5.23-4.63l0-.4H64.33l0,.46c.29,4.47,3.29,7.13,8,7.13s8-3.06,8-7.79c0-3.31-1.2-5.51-3.67-6.68" style="fill:#f27321"/><path d="M89.28,24.78c3.48,0,4.71,2.95,4.71,5.46,0,3.37-1.81,5.46-4.71,5.46s-4.68-2.09-4.68-5.46,1.79-5.46,4.68-5.46m.19-2.55a8.33,8.33,0,0,0-2.22.29l6-11.93H90.31l-7,14a12.53,12.53,0,0,0-1.54,5.75c0,4.8,2.94,7.91,7.5,7.91,4.38,0,7.45-3.36,7.45-8.17,0-4.63-3-7.86-7.3-7.86" style="fill:#f27321"/><path d="M105.58,35.7c-3.41,0-4.63-2.67-4.63-5.16V18.08c0-2.5,1.22-5.16,4.63-5.16s4.64,2.66,4.64,5.16V30.54c0,2.49-1.22,5.16-4.64,5.16m0-25.34a7.23,7.23,0,0,0-7.41,7.53V30.73a7.23,7.23,0,0,0,7.41,7.53A7.15,7.15,0,0,0,113,30.73V17.89a7.15,7.15,0,0,0-7.42-7.53" style="fill:#f27321"/><path d="M7.77,46.2H6.61v4H5.94v-4H4.77v-.59H7.82A3.7,3.7,0,0,1,7.77,46.2Z" style="fill:#231f20"/><path d="M11.5,50.22V48.09h-2v2.13H8.83V45.61H9.5V47.5h2V45.61h.67v4.61Z" style="fill:#231f20"/><path d="M16.32,50.22H13.69V45.61h2.58a3,3,0,0,1-.06.59H14.36v1.33h1.4v.58h-1.4v1.52h2A3.93,3.93,0,0,1,16.32,50.22Z" style="fill:#231f20"/><path d="M20.15,50.29a3.51,3.51,0,0,1-1.24-.21,3.18,3.18,0,0,1,.15-.59,2.87,2.87,0,0,0,1.15.22c.52,0,.8-.23.8-.68,0-1-2.09-.87-2.09-2.2,0-.83.66-1.28,1.58-1.28a4.43,4.43,0,0,1,1,.1,2.6,2.6,0,0,1-.1.59,4.43,4.43,0,0,0-1-.12c-.63,0-.82.27-.82.65,0,.87,2.09.8,2.09,2.2C21.68,49.77,21.1,50.29,20.15,50.29Z" style="fill:#231f20"/><path d="M24.63,50.29c-1.31,0-2-.82-2-2.38s.82-2.36,2-2.36a2.86,2.86,0,0,1,1.16.22c0,.19-.08.41-.12.6a2.31,2.31,0,0,0-1-.23c-.81,0-1.27.43-1.27,1.78s.39,1.77,1.28,1.77a2.15,2.15,0,0,0,1.09-.3,2.65,2.65,0,0,1,.13.6A2.6,2.6,0,0,1,24.63,50.29Z" style="fill:#231f20"/><path d="M27,50.22V45.61h.67v4.61Z" style="fill:#231f20"/><path d="M31.8,50.22H29.17V45.61h2.58a3,3,0,0,1-.06.59H29.84v1.33h1.4v.58h-1.4v1.52h2A3,3,0,0,1,31.8,50.22Z" style="fill:#231f20"/><path d="M35.81,50.25,33.91,47a2.59,2.59,0,0,1-.22-.5h0c0,.18,0,.39,0,.52v3.18h-.6V45.66a4.11,4.11,0,0,1,.69-.06l1.82,3.1a2.71,2.71,0,0,1,.22.49h.05a4.58,4.58,0,0,1,0-.53v-3h.6V50.2A4,4,0,0,1,35.81,50.25Z" style="fill:#231f20"/><path d="M39.67,50.29c-1.31,0-2-.82-2-2.38s.82-2.36,2-2.36a2.86,2.86,0,0,1,1.16.22,4.25,4.25,0,0,1-.12.6,2.28,2.28,0,0,0-1-.23c-.8,0-1.27.43-1.27,1.78s.4,1.77,1.28,1.77a2.21,2.21,0,0,0,1.1-.3,3.35,3.35,0,0,1,.12.6A2.57,2.57,0,0,1,39.67,50.29Z" style="fill:#231f20"/><path d="M44.65,50.22H42V45.61H44.6a3,3,0,0,1-.06.59H42.69v1.33h1.4v.58h-1.4v1.52h2A3,3,0,0,1,44.65,50.22Z" style="fill:#231f20"/><path d="M49.13,50.29c-1.2,0-1.9-.73-1.9-2.35s.72-2.39,1.9-2.39S51,46.29,51,47.92,50.27,50.29,49.13,50.29Zm0-4.16c-.78,0-1.17.43-1.17,1.79s.34,1.79,1.18,1.79,1.17-.49,1.17-1.79S49.89,46.13,49.12,46.13Z" style="fill:#231f20"/><path d="M54.84,46.2H53v1.44H54.5v.58H53v2h-.67V45.61h2.61A4,4,0,0,1,54.84,46.2Z" style="fill:#231f20"/><path d="M57.61,50.22V45.61h.66v4.61Z" style="fill:#231f20"/><path d="M63.76,50.24,63.5,47c0-.1,0-.3,0-.44h0a2.26,2.26,0,0,1-.09.44l-1,3.27h-.62l-1-3.27a2.39,2.39,0,0,1-.07-.44h-.05c0,.13,0,.36,0,.44l-.3,3.29a2.57,2.57,0,0,1-.57-.05c.11-1.52.26-3,.44-4.58h.75L61.92,49a4.45,4.45,0,0,1,.11.51h0a2.68,2.68,0,0,1,.09-.52l1.05-3.33H64c.17,1.54.31,3.07.42,4.58A3.52,3.52,0,0,1,63.76,50.24Z" style="fill:#231f20"/><path d="M67.07,48.54h-.62v1.68h-.66V45.66a10.07,10.07,0,0,1,1.31-.09A1.37,1.37,0,0,1,68.64,47,1.44,1.44,0,0,1,67.07,48.54Zm0-2.44c-.16,0-.37,0-.63,0V48H67a.87.87,0,0,0,1-1A.83.83,0,0,0,67.08,46.1Z" style="fill:#231f20"/><path d="M72.33,50.25,72,49.5a4.35,4.35,0,0,0-.77-1.17h-.67v1.89h-.65V45.66a11.38,11.38,0,0,1,1.32-.09c.82,0,1.5.35,1.5,1.32a1.24,1.24,0,0,1-.94,1.24,3.27,3.27,0,0,1,.78,1l.52,1A2.89,2.89,0,0,1,72.33,50.25Zm-1.17-4.14c-.2,0-.46,0-.64,0V47.8h.56c.59,0,.93-.27.93-.87S71.69,46.11,71.16,46.11Z" style="fill:#231f20"/><path d="M75.74,50.29c-1.19,0-1.9-.73-1.9-2.35s.73-2.39,1.9-2.39,1.9.74,1.9,2.37S76.88,50.29,75.74,50.29Zm0-4.16c-.78,0-1.18.43-1.18,1.79s.35,1.79,1.18,1.79,1.18-.49,1.18-1.79S76.51,46.13,75.74,46.13Z" style="fill:#231f20"/><path d="M80.56,50.22h-.7c-.53-1.47-1-3-1.44-4.57a3.83,3.83,0,0,1,.65-.06l1.06,3.54c0,.12.05.26.07.38h0a2.33,2.33,0,0,1,.08-.38l1.07-3.54a3.15,3.15,0,0,1,.61.06C81.59,47.21,81.09,48.74,80.56,50.22Z" style="fill:#231f20"/><path d="M83.06,50.22V45.61h.67v4.61Z" style="fill:#231f20"/><path d="M88,50.25,86.09,47a3.39,3.39,0,0,1-.22-.5h-.05c0,.18,0,.39,0,.52v3.18h-.61V45.66a4.11,4.11,0,0,1,.69-.06l1.82,3.1a3.68,3.68,0,0,1,.23.49h0a4.58,4.58,0,0,1,0-.53v-3h.6V50.2A4,4,0,0,1,88,50.25Z" style="fill:#231f20"/><path d="M91.91,50.29c-1.38,0-2-.82-2-2.38s.84-2.36,2.09-2.36a3,3,0,0,1,1.22.22,4.62,4.62,0,0,1-.13.6A2.72,2.72,0,0,0,92,46.14c-.87,0-1.4.38-1.4,1.8s.49,1.75,1.35,1.75a2,2,0,0,0,.69-.11V48.44h-.85a2.78,2.78,0,0,1-.06-.58h1.56V50A3.29,3.29,0,0,1,91.91,50.29Z" style="fill:#231f20"/><path d="M98.75,50.22H96.27V45.61h.67v4H98.8A4,4,0,0,1,98.75,50.22Z" style="fill:#231f20"/><path d="M99.85,50.22V45.61h.67v4.61Z" style="fill:#231f20"/><path d="M103.71,50.22H103c-.52-1.47-1-3-1.44-4.57a4,4,0,0,1,.66-.06l1.06,3.54c0,.12,0,.26.07.38h.05a2.32,2.32,0,0,1,.07-.38l1.08-3.54a3,3,0,0,1,.6.06C104.73,47.21,104.24,48.74,103.71,50.22Z" style="fill:#231f20"/><path d="M108.84,50.22h-2.63V45.61h2.57a3.92,3.92,0,0,1,0,.59h-1.85v1.33h1.4v.58h-1.4v1.52h2A3.92,3.92,0,0,1,108.84,50.22Z" style="fill:#231f20"/><path d="M111.1,50.29a3.55,3.55,0,0,1-1.24-.21,3.18,3.18,0,0,1,.15-.59,2.87,2.87,0,0,0,1.15.22c.53,0,.8-.23.8-.68,0-1-2.09-.87-2.09-2.2,0-.83.66-1.28,1.58-1.28a4.43,4.43,0,0,1,1,.1,2.15,2.15,0,0,1-.1.59,4.43,4.43,0,0,0-1-.12c-.62,0-.82.27-.82.65,0,.87,2.1.8,2.1,2.2C112.64,49.77,112.05,50.29,111.1,50.29Z" style="fill:#231f20"/></svg>