<svg xmlns="http://www.w3.org/2000/svg" viewBox="0 0 59.86 59.86"><title>link-icon</title><path d="M29.93,0A29.93,29.93,0,1,0,59.86,29.93,29.93,29.93,0,0,0,29.93,0Z"/><path d="M47.64,22a6.95,6.95,0,0,0-5.09-5.84,6.88,6.88,0,0,0-5.27.69L28.39,22a6.64,6.64,0,0,0-.87.59,4.94,4.94,0,0,1,3.95,1.07l7.32-4.18a3.86,3.86,0,0,1,2-.53,4.06,4.06,0,0,1,1,.14,3.94,3.94,0,0,1,.95,7.2l-8.89,5.13a3.93,3.93,0,0,1-3,.39,3.8,3.8,0,0,1-1.62-.87,5,5,0,0,1-.77-1c-.34-.49-.33-.6-.56-.78a1.8,1.8,0,0,0-1.28-.29,1.65,1.65,0,0,0-1,.43,1.31,1.31,0,0,0-.43.76c0,.3.16.67.62,1.39a7.28,7.28,0,0,0,.87,1.2,7.91,7.91,0,0,0,1,.87,7.09,7.09,0,0,0,4.2,1.4,7.92,7.92,0,0,0,.85-.05A6.78,6.78,0,0,0,35.34,34l8.89-5.13h0a6.81,6.81,0,0,0,2.06-1.83A6.91,6.91,0,0,0,47.64,22Z" style="fill:#fff"/><path d="M11.16,36.92a7,7,0,0,0,2.71,4.68,6.81,6.81,0,0,0,2.39,1.16,6.88,6.88,0,0,0,5.27-.69l8.89-5.13a7.38,7.38,0,0,0,.87-.59,4.94,4.94,0,0,1-3.95-1.07L20,39.46a3.86,3.86,0,0,1-1.95.53,4.06,4.06,0,0,1-1-.14A3.87,3.87,0,0,1,14.65,38a3.94,3.94,0,0,1,1.44-5.37L25,27.52a3.92,3.92,0,0,1,3-.39,4,4,0,0,1,1.62.87,5,5,0,0,1,.77,1c.34.49.33.61.56.78a1.8,1.8,0,0,0,1.28.29,1.65,1.65,0,0,0,1-.43,1.26,1.26,0,0,0,.42-.76c0-.3-.15-.67-.61-1.39a6.82,6.82,0,0,0-.87-1.19,7.1,7.1,0,0,0-1-.87A7,7,0,0,0,26.94,24a7.92,7.92,0,0,0-.85.05,7,7,0,0,0-2.62.88L14.58,30h0a6.81,6.81,0,0,0-2.06,1.83,7,7,0,0,0-1.17,2.39A7.23,7.23,0,0,0,11.16,36.92Z" style="fill:#fff"/></svg>