<svg xmlns="http://www.w3.org/2000/svg" viewBox="0 0 84.02 139.43"><title>mobile-icon</title><path d="M46.18,71l3.16-4.4.74-39.22-29,25.29a1.87,1.87,0,0,1-2.91-1.14h0a21,21,0,0,0-5.58-9.91L8.38,37.5a4.77,4.77,0,0,0-6.94,0h0a4.85,4.85,0,0,0,0,6.9l.81.79a9.87,9.87,0,0,1,2.92,7v12.9A15.21,15.21,0,0,0,9.6,75.92l3,3v38.88H43.43" style="fill:#a49faa"/><path d="M49.4,40.43l11.45-10a4.67,4.67,0,0,0,.46-6.6h0a4.69,4.69,0,0,0-6.61-.46l-11.45,10Z" style="fill:#a49faa"/><path d="M60.18,39.91a4.68,4.68,0,0,0-6.39-1.73l-10,5.73c-2.41,1.38-3.53,4.4-2.32,6.62a4.91,4.91,0,0,0,6.83,1.58L58.44,46.3a4.68,4.68,0,0,0,1.74-6.39Z" style="fill:#a49faa"/><path d="M59.72,50.35a4.57,4.57,0,0,0-6.19-1.84L44,54a5,5,0,0,0-2.09,6.49,4.77,4.77,0,0,0,6.6,1.71l9.65-5.53a4.58,4.58,0,0,0,1.53-6.28Z" style="fill:#a49faa"/><path d="M59.14,60.87c-1.29-2.24-3.81-3.21-5.65-2.16L45.32,63.4a4.59,4.59,0,0,0-1.47,6.14,4.47,4.47,0,0,0,6,2l8.29-4.76c1.83-1,2.28-3.72,1-6Z" style="fill:#a49faa"/><path d="M47.06,77H14a4,4,0,0,1-4-4V4a4,4,0,0,1,4-4H47.06a4,4,0,0,1,4,4V73A4,4,0,0,1,47.06,77Z"/><path d="M31.44,3.11a.94.94,0,1,1-.94-.94A.94.94,0,0,1,31.44,3.11Z" style="fill:#fff;opacity:0.15"/><rect x="12.89" y="5.7" width="35.22" height="62.62" style="fill:#f2f2f2"/><circle cx="30.5" cy="37.01" r="9.88" style="fill:#c44f00"/><path d="M28.34,40.81l-2.59-2.59a1.22,1.22,0,0,1,0-1.73h0a1.24,1.24,0,0,1,1.73,0l1.73,1.73,4.31-4.32a1.24,1.24,0,0,1,1.73,0h0a1.22,1.22,0,0,1,0,1.73l-5.18,5.18A1.22,1.22,0,0,1,28.34,40.81Z" style="fill:#fff"/><path d="M49,129.94l3.47,9.49L84,127.89l-7-19.07a13,13,0,0,1-.78-4,66.42,66.42,0,0,0-4-20.29l-3.34-9.14a4.84,4.84,0,0,0-6-3,4.68,4.68,0,0,0-2.87,6L59.18,76a4.67,4.67,0,0,0-6-2.79h0a4.68,4.68,0,0,0-2.79,6L49.94,78a4.68,4.68,0,1,0-8.79,3.21l-7.8-21.32a4.84,4.84,0,0,0-6-3,4.68,4.68,0,0,0-2.87,6L37.83,99.48l.38.83-6.48-6.52a4.86,4.86,0,0,0-6.67-.19,4.69,4.69,0,0,0-.08,6.68l14.17,14.25A20.14,20.14,0,0,0,45.79,119h0a5.12,5.12,0,0,1,2.85,3l1.81,4.94Z" style="fill:#c6c2cc"/></svg>