<svg xmlns="http://www.w3.org/2000/svg" viewBox="0 0 87 109.66"><title>syringe-icon</title><path d="M50.65,88.59H33.93V34.31a1.17,1.17,0,0,1,.9-1.13,34.71,34.71,0,0,1,14.91,0,1.17,1.17,0,0,1,.91,1.14ZM35.47,87.05H49.12V34.63a32.87,32.87,0,0,0-13.65,0Z" style="fill:#fff"/><path d="M45.19,28.87h-5.8a.38.38,0,0,0-.38.39V34a6.67,6.67,0,0,1,6.56,0V29.26A.38.38,0,0,0,45.19,28.87Z" style="fill:#fff"/><polygon points="42.15 5.64 43.27 0 43.27 29.95 42.15 29.95 42.15 5.64" style="fill:#fff"/><rect x="30.19" y="87.82" width="24.19" height="4.38" rx="0.36" ry="0.36" style="fill:#fff"/><rect x="40.13" y="92.2" width="4.13" height="14.06" style="fill:#fff"/><rect x="34.6" y="106.27" width="15.19" height="3.39" rx="0.36" ry="0.36" style="fill:#fff"/><path d="M42.71,39.2h5.72a.58.58,0,0,0,0-1.16H42.71a.58.58,0,0,0,0,1.16Z" style="fill:#fff"/><path d="M42.71,43.81h5.72a.58.58,0,0,0,0-1.15H42.71a.58.58,0,0,0,0,1.15Z" style="fill:#fff"/><path d="M42.71,48.43h5.72a.58.58,0,0,0,0-1.15H42.71a.58.58,0,0,0,0,1.15Z" style="fill:#fff"/><path d="M42.71,53.05h5.72a.58.58,0,0,0,0-1.16H42.71a.58.58,0,0,0,0,1.16Z" style="fill:#fff"/><path d="M42.71,57.66h5.72a.58.58,0,0,0,0-1.15H42.71a.58.58,0,0,0,0,1.15Z" style="fill:#fff"/><path d="M42.71,62.28h5.72a.58.58,0,0,0,0-1.15H42.71a.58.58,0,0,0,0,1.15Z" style="fill:#fff"/><path d="M42.71,66.9h5.72a.58.58,0,0,0,0-1.16H42.71a.58.58,0,0,0,0,1.16Z" style="fill:#fff"/><path d="M42.71,71.51h5.72a.58.58,0,0,0,0-1.15H42.71a.58.58,0,0,0,0,1.15Z" style="fill:#fff"/><path d="M42.71,76.13h5.72a.58.58,0,0,0,0-1.15H42.71a.58.58,0,0,0,0,1.15Z" style="fill:#fff"/><g style="opacity:0.30000000000000004"><path d="M70.07,89.66C80,82,86.5,69,86.5,54.16S80,26.33,70.07,18.66" style="fill:none;stroke:#fff;stroke-miterlimit:10"/><path d="M16.93,18.66C7,26.33.5,39.37.5,54.16S7,82,16.93,89.66" style="fill:none;stroke:#fff;stroke-miterlimit:10"/></g></svg>