<svg id="cat_logo" data-name="cat logo" xmlns="http://www.w3.org/2000/svg" xmlns:xlink="http://www.w3.org/1999/xlink" width="1280" height="800" viewBox="0 0 1280 800">
  <defs>
    <clipPath id="clip-path">
      <path d="M294.6,368.72c0-22.33,17-38.94,39.71-38.94,10.45,0,20,3.41,26.73,10.23l-2.31,2.42c-6.82-6.6-15.18-9.24-24.31-9.24-20.57,0-36.08,15.4-36.08,35.53s15.51,35.53,36.08,35.53c9.13,0,17.49-2.75,24.31-9.35l2.31,2.42c-6.71,6.93-16.28,10.34-26.73,10.34C311.65,407.66,294.6,391.05,294.6,368.72Z" style="fill: none"/>
    </clipPath>
    <clipPath id="clip-path-2">
      <path d="M447.94,384.67H401.85l-10.34,22.55h-4.07l35.64-77h3.63l35.64,77h-4.07Zm-1.43-3.19-21.56-47-21.67,47Z" style="fill: none"/>
    </clipPath>
    <clipPath id="clip-path-3">
      <path d="M510.09,333.63H481.82v-3.41H542v3.41H513.72v73.59h-3.63Z" style="fill: none"/>
    </clipPath>
    <clipPath id="clip-path-4">
      <path d="M621.85,384.67H575.76l-10.34,22.55h-4.07l35.64-77h3.63l35.64,77h-4.07Zm-1.43-3.19-21.56-47-21.67,47Z" style="fill: none"/>
    </clipPath>
    <clipPath id="clip-path-5">
      <path d="M673.22,330.22H677v73.59h45.1v3.41H673.22Z" style="fill: none"/>
    </clipPath>
    <clipPath id="clip-path-6">
      <path d="M772.66,380.93v26.29h-3.74V380.93l-31.13-50.71h4.07l29,47.08,29-47.08h4Z" style="fill: none"/>
    </clipPath>
    <clipPath id="clip-path-7">
      <path d="M893.22,403.81v3.41H832.06v-2.64L887,333.63H832.61v-3.41H892v2.64l-54.89,70.95Z" style="fill: none"/>
    </clipPath>
    <clipPath id="clip-path-8">
      <path d="M985.4,403.81v3.41h-52v-77h50.49v3.41H937.11v32.78h41.8v3.41h-41.8v34Z" style="fill: none"/>
    </clipPath>
  </defs>
  <title>catalyst_intro</title>
  <rect x="-31" y="-35" width="1320" height="849" style="fill: #f27321"/>
  <circle id="orange_dot" data-name="orange dot" cx="333.42" cy="369.25" r="9.51" style="fill: #f27321"/>
  <g id="cat_title_white" data-name="cat title white">
    <g style="clip-path: url(#clip-path)">
      <path id="c_path" d="M360,395.71s-5.7,8.54-25.62,8.54-39.82-9.81-39.82-35.53,28.77-38.94,39.71-38.94S361,343.25,361,343.25" style="fill: none;stroke: #fff;stroke-miterlimit: 10;stroke-width: 10px"/>
    </g>
    <g style="clip-path: url(#clip-path-2)">
      <path id="a_path" data-name="a path" d="M387,411.83l37.9-82.91s37.72,82.58,38.6,84.33-.25-30.25-.25-30.25l-69.37-.62" style="fill: none;stroke: #fff;stroke-miterlimit: 10;stroke-width: 5px"/>
    </g>
    <g style="clip-path: url(#clip-path-3)">
      <path id="t_path" data-name="t path" d="M477,331.17h70s-35.09-27.34-35.09-15.34v95.34" style="fill: none;stroke: #fff;stroke-miterlimit: 10;stroke-width: 7px"/>
    </g>
    <g style="clip-path: url(#clip-path-4)">
      <path id="a2_path" data-name="a2 path" d="M561,412.49l37.9-82.92s37.73,82.58,38.6,84.33-.24-30.25-.24-30.25L567.89,383" style="fill: none;stroke: #fff;stroke-miterlimit: 10;stroke-width: 5px"/>
    </g>
    <g style="clip-path: url(#clip-path-5)">
      <path id="l_path" data-name="l path" d="M674.83,325.83s-1.33,77.62,0,79.5,50,0,50,0" style="fill: none;stroke: #fff;stroke-miterlimit: 10;stroke-width: 6px"/>
    </g>
    <g style="clip-path: url(#clip-path-6)">
      <path id="y_path" data-name="y path" d="M770.82,410V366.83s5.16-23.5,0-44.66" style="fill: none;stroke: #fff;stroke-miterlimit: 10;stroke-width: 93px"/>
    </g>
    <g style="clip-path: url(#clip-path-7)">
      <path id="z_path" data-name="z path" d="M830,331.75s58.73-2.7,59.75,0-55.5,73-55.5,73h62.5" style="fill: none;stroke: #fff;stroke-miterlimit: 10;stroke-width: 8px"/>
    </g>
    <g style="clip-path: url(#clip-path-8)">
      <path id="e_path" data-name="e path" d="M927.25,367.5H991s2.25-.12,4.38-.12" style="fill: none;stroke: #fff;stroke-miterlimit: 10;stroke-width: 100px"/>
    </g>
  </g>
  <g id="cat_title" data-name="cat title">
    <path d="M294.6,368.72c0-22.33,17-38.94,39.71-38.94,10.45,0,20,3.41,26.73,10.23l-2.31,2.42c-6.82-6.6-15.18-9.24-24.31-9.24-20.57,0-36.08,15.4-36.08,35.53s15.51,35.53,36.08,35.53c9.13,0,17.49-2.75,24.31-9.35l2.31,2.42c-6.71,6.93-16.28,10.34-26.73,10.34C311.65,407.66,294.6,391.05,294.6,368.72Z"/>
    <path d="M447.94,384.67H401.85l-10.34,22.55h-4.07l35.64-77h3.63l35.64,77h-4.07Zm-1.43-3.19-21.56-47-21.67,47Z"/>
    <path d="M510.09,333.63H481.82v-3.41H542v3.41H513.72v73.59h-3.63Z"/>
    <path d="M621.85,384.67H575.76l-10.34,22.55h-4.07l35.64-77h3.63l35.64,77h-4.07Zm-1.43-3.19-21.56-47-21.67,47Z"/>
    <path d="M673.22,330.22H677v73.59h45.1v3.41H673.22Z"/>
    <path d="M772.66,380.93v26.29h-3.74V380.93l-31.13-50.71h4.07l29,47.08,29-47.08h4Z"/>
    <path d="M893.22,403.81v3.41H832.06v-2.64L887,333.63H832.61v-3.41H892v2.64l-54.89,70.95Z"/>
    <path d="M985.4,403.81v3.41h-52v-77h50.49v3.41H937.11v32.78h41.8v3.41h-41.8v34Z"/>
  </g>
  <g id="cat_subtitle" data-name="cat subtitle">
    <g>
      <path d="M518.22,464.48c1.36-1.44,2.88-3.07,2.88-5.16a2.75,2.75,0,0,0-2.41-3.05,3.42,3.42,0,0,0-.64,0,6,6,0,0,0-3.53,1.4v-1.25a6.31,6.31,0,0,1,3.58-1.32c2.47,0,4.34,1.46,4.34,4.08s-1.78,4.37-2.81,5.45l-3.91,4.05h7v1.18h-8.59V468.8Z" style="fill: #333"/>
      <path d="M533.31,455.1c3,0,5.28,2.83,5.28,7.56s-2.3,7.56-5.28,7.56-5.28-2.81-5.28-7.56S530.36,455.1,533.31,455.1Zm0,1.15c-2.28,0-4,2.33-4,6.41s1.68,6.41,4,6.41,4-2.31,4-6.41S535.59,456.25,533.31,456.25Z" style="fill: #333"/>
      <path d="M543.65,456.9v-1l2.81-.7v14.62h-1.27v-13Z" style="fill: #333"/>
      <path d="M552.13,456.63v-1.17h9.07v.74c-1.22,1.85-4.9,9-5.71,13.66H554a57.36,57.36,0,0,1,5.62-13.23Z" style="fill: #333"/>
      <path d="M573.7,469.86h-1.37l6-14.4h1.08l6,14.4H584l-1.73-4.18H575.5Zm5.07-12.43-2.88,7.08h5.78Z" style="fill: #333"/>
      <path d="M591.22,455.46l8.71,11.74V455.46h1.25v14.4h-.91l-8.71-11.74v11.74h-1.25v-14.4Z" style="fill: #333"/>
      <path d="M608.33,455.46l8.72,11.74V455.46h1.24v14.4h-.91l-8.71-11.74v11.74h-1.25v-14.4Z" style="fill: #333"/>
      <path d="M624.53,455.46h1.32v7.75c0,4,1.85,5.79,4.64,5.79s4.65-1.8,4.65-5.79v-7.75h1.32v7.73c0,4.85-2.4,7-6,7s-6-2.18-6-7Z" style="fill: #333"/>
      <path d="M641.86,469.86h-1.37l6-14.4h1.08l6,14.4H652l-1.73-4.18h-6.75Zm5.07-12.43-2.88,7.08h5.78Z" style="fill: #333"/>
      <path d="M659.79,455.46v13.22h6.84v1.18h-8.16v-14.4Z" style="fill: #333"/>
      <path d="M688.59,469.86H687l-4.13-5.95h-3v5.95h-1.32v-14.4H683c3.1,0,4.44,2,4.44,4.22a3.85,3.85,0,0,1-3.17,4.08Zm-2.45-10.18a2.82,2.82,0,0,0-2.56-3.06,3.49,3.49,0,0,0-.56,0h-3.14v6.1H683a2.81,2.81,0,0,0,3.13-2.45A2.41,2.41,0,0,0,686.14,459.68Z" style="fill: #333"/>
      <path d="M701.84,455.46v1.17H695v5.07h5.64v1.18H695v5.8h6.84v1.18h-8.16v-14.4Z" style="fill: #333"/>
      <path d="M712.06,455.46a4.35,4.35,0,0,1,.42,8.69,2.94,2.94,0,0,1-.42,0h-3.14v5.71H707.6v-14.4Zm3.12,4.34a2.91,2.91,0,0,0-2.61-3.17h-3.65V463h3.14a2.89,2.89,0,0,0,3.13-2.63A3.62,3.62,0,0,0,715.18,459.8Z" style="fill: #333"/>
      <path d="M728.5,455.1a7.56,7.56,0,1,1-7.37,7.75v-.19a7.23,7.23,0,0,1,6.91-7.55Zm0,1.22c-3.48,0-6,2.55-6,6.34s2.52,6.34,6,6.34,6-2.55,6-6.34S731.93,456.32,728.5,456.32Z" style="fill: #333"/>
      <path d="M751.44,469.86h-1.55l-4.13-5.95h-3v5.95h-1.32v-14.4h4.47c3.09,0,4.44,2,4.44,4.22a3.86,3.86,0,0,1-3.17,4.08ZM749,459.68a2.82,2.82,0,0,0-2.56-3.06,3.49,3.49,0,0,0-.56,0h-3.15v6.1h3.15a2.8,2.8,0,0,0,3.11-2.47A2.25,2.25,0,0,0,749,459.68Z" style="fill: #333"/>
      <path d="M754.56,456.63v-1.17h11.6v1.17H761v13.23h-1.3V456.63Z" style="fill: #333"/>
    </g>
  </g>
</svg>
